<svg width="840" height="552" viewBox="0 0 840 552" fill="none" xmlns="http://www.w3.org/2000/svg" font-family="Segoe UI, Ubuntu, sans-serif">
  <style>
    /* auto-play on render — GitHub's img-embedded SVG runs CSS animation but not :hover/JS.
       base state = final, so if animation is unsupported the finished card still shows. */
    .bar{transform-box:fill-box;transform-origin:bottom;animation:grow .9s ease-out backwards}
    .cum{stroke-dasharray:1;animation:draw 1.4s ease-out .25s backwards}
    .end{animation:fade .6s ease-out 1.25s backwards}
    @keyframes grow{from{transform:scaleY(0)}}
    @keyframes draw{from{stroke-dashoffset:1}to{stroke-dashoffset:0}}
    @keyframes fade{from{opacity:0}}
    @media (prefers-reduced-motion:reduce){.bar,.cum,.end{animation:none}}
  </style>
  <rect x="0.5" y="0.5" width="839" height="551" rx="10" fill="#0d1117" stroke="#30363d"/>
  <text x="40" y="40" fill="#58a6ff" font-size="18" font-weight="700">fujiya228 · GitHub Activity</text>
  <text x="800" y="40" fill="#8b949e" font-size="12" text-anchor="end">past year: 12.5k contributions</text>
  <g>
    <text x="40" y="85" fill="#c9d1d9" font-size="13" font-weight="600">Daily · last 30 days</text>
    <text x="800" y="85" fill="#8b949e" font-size="11" text-anchor="end">期間別 ▮   累計 ―</text>
    <line x1="40" y1="206" x2="800" y2="206" stroke="#21262d"/>
    <rect class="bar" style="animation-delay:0.00s" x="44.8" y="147.0" width="15.7" height="59.0" rx="1.5" fill="#39d353"/><rect class="bar" style="animation-delay:0.01s" x="70.1" y="137.1" width="15.7" height="68.9" rx="1.5" fill="#39d353"/><rect class="bar" style="animation-delay:0.02s" x="95.5" y="114.0" width="15.7" height="92.0" rx="1.5" fill="#39d353"/><rect class="bar" style="animation-delay:0.04s" x="120.8" y="173.0" width="15.7" height="33.0" rx="1.5" fill="#39d353"/><rect class="bar" style="animation-delay:0.05s" x="146.1" y="185.2" width="15.7" height="20.8" rx="1.5" fill="#39d353"/><rect class="bar" style="animation-delay:0.06s" x="171.5" y="204.3" width="15.7" height="1.7" rx="1.5" fill="#39d353"/><rect class="bar" style="animation-delay:0.07s" x="196.8" y="191.5" width="15.7" height="14.5" rx="1.5" fill="#39d353"/><rect class="bar" style="animation-delay:0.08s" x="222.1" y="177.1" width="15.7" height="28.9" rx="1.5" fill="#39d353"/><rect class="bar" style="animation-delay:0.10s" x="247.5" y="172.4" width="15.7" height="33.6" rx="1.5" fill="#39d353"/><rect class="bar" style="animation-delay:0.11s" x="272.8" y="159.1" width="15.7" height="46.9" rx="1.5" fill="#39d353"/><rect class="bar" style="animation-delay:0.12s" x="298.1" y="183.4" width="15.7" height="22.6" rx="1.5" fill="#39d353"/><rect class="bar" style="animation-delay:0.13s" x="323.5" y="155.1" width="15.7" height="50.9" rx="1.5" fill="#39d353"/><rect class="bar" style="animation-delay:0.14s" x="348.8" y="166.7" width="15.7" height="39.3" rx="1.5" fill="#39d353"/><rect class="bar" style="animation-delay:0.16s" x="374.1" y="174.2" width="15.7" height="31.8" rx="1.5" fill="#39d353"/><rect class="bar" style="animation-delay:0.17s" x="399.5" y="176.5" width="15.7" height="29.5" rx="1.5" fill="#39d353"/><rect class="bar" style="animation-delay:0.18s" x="424.8" y="192.7" width="15.7" height="13.3" rx="1.5" fill="#39d353"/><rect class="bar" style="animation-delay:0.19s" x="450.1" y="195.6" width="15.7" height="10.4" rx="1.5" fill="#39d353"/><rect class="bar" style="animation-delay:0.20s" x="475.5" y="183.4" width="15.7" height="22.6" rx="1.5" fill="#39d353"/><rect class="bar" style="animation-delay:0.22s" x="500.8" y="171.9" width="15.7" height="34.1" rx="1.5" fill="#39d353"/><rect class="bar" style="animation-delay:0.23s" x="526.1" y="177.1" width="15.7" height="28.9" rx="1.5" fill="#39d353"/><rect class="bar" style="animation-delay:0.24s" x="551.5" y="194.4" width="15.7" height="11.6" rx="1.5" fill="#39d353"/><rect class="bar" style="animation-delay:0.25s" x="576.8" y="173.0" width="15.7" height="33.0" rx="1.5" fill="#39d353"/><rect class="bar" style="animation-delay:0.26s" x="602.1" y="177.1" width="15.7" height="28.9" rx="1.5" fill="#39d353"/><rect class="bar" style="animation-delay:0.28s" x="627.5" y="185.2" width="15.7" height="20.8" rx="1.5" fill="#39d353"/><rect class="bar" style="animation-delay:0.29s" x="652.8" y="197.9" width="15.7" height="8.1" rx="1.5" fill="#39d353"/><rect class="bar" style="animation-delay:0.30s" x="678.1" y="198.5" width="15.7" height="7.5" rx="1.5" fill="#39d353"/><rect class="bar" style="animation-delay:0.31s" x="703.5" y="195.0" width="15.7" height="11.0" rx="1.5" fill="#39d353"/><rect class="bar" style="animation-delay:0.32s" x="728.8" y="197.9" width="15.7" height="8.1" rx="1.5" fill="#39d353"/><rect class="bar" style="animation-delay:0.34s" x="754.1" y="142.9" width="15.7" height="63.1" rx="1.5" fill="#39d353"/><rect class="bar" style="animation-delay:0.35s" x="779.5" y="198.5" width="15.7" height="7.5" rx="1.5" fill="#39d353"/><polyline class="cum" pathLength="1" points="52.7,200.3 78.0,193.7 103.3,184.8 128.7,181.6 154.0,179.6 179.3,179.5 204.7,178.1 230.0,175.3 255.3,172.1 280.7,167.5 306.0,165.4 331.3,160.5 356.7,156.7 382.0,153.6 407.3,150.8 432.7,149.5 458.0,148.5 483.3,146.3 508.7,143.0 534.0,140.2 559.3,139.1 584.7,135.9 610.0,133.2 635.3,131.1 660.7,130.4 686.0,129.6 711.3,128.6 736.7,127.8 762.0,121.7 787.3,121.0" fill="none" stroke="#58a6ff" stroke-width="2" stroke-linejoin="round"/><g class="end"><circle cx="787.3" cy="121.0" r="3" fill="#58a6ff"/>
    <text x="781.3" y="114.0" fill="#58a6ff" font-size="11" font-weight="600" text-anchor="end">1.5k</text></g><text x="52.7" y="219" fill="#8b949e" font-size="9" text-anchor="middle">7/27</text><text x="787.3" y="219" fill="#8b949e" font-size="9" text-anchor="middle">8/25</text>
  </g>
  <g>
    <text x="40" y="241" fill="#c9d1d9" font-size="13" font-weight="600">Weekly · last 13 weeks</text>
    <text x="800" y="241" fill="#8b949e" font-size="11" text-anchor="end">期間別 ▮   累計 ―</text>
    <line x1="40" y1="362" x2="800" y2="362" stroke="#21262d"/>
    <rect class="bar" style="animation-delay:0.00s" x="56.2" y="358.5" width="26.0" height="3.5" rx="1.5" fill="#39d353"/><rect class="bar" style="animation-delay:0.01s" x="114.7" y="353.7" width="26.0" height="8.3" rx="1.5" fill="#39d353"/><rect class="bar" style="animation-delay:0.02s" x="173.2" y="350.5" width="26.0" height="11.5" rx="1.5" fill="#39d353"/><rect class="bar" style="animation-delay:0.04s" x="231.6" y="343.3" width="26.0" height="18.7" rx="1.5" fill="#39d353"/><rect class="bar" style="animation-delay:0.05s" x="290.1" y="325.2" width="26.0" height="36.8" rx="1.5" fill="#39d353"/><rect class="bar" style="animation-delay:0.06s" x="348.5" y="270.0" width="26.0" height="92.0" rx="1.5" fill="#39d353"/><rect class="bar" style="animation-delay:0.07s" x="407.0" y="297.5" width="26.0" height="64.5" rx="1.5" fill="#39d353"/><rect class="bar" style="animation-delay:0.08s" x="465.5" y="278.2" width="26.0" height="83.8" rx="1.5" fill="#39d353"/><rect class="bar" style="animation-delay:0.10s" x="523.9" y="313.8" width="26.0" height="48.2" rx="1.5" fill="#39d353"/><rect class="bar" style="animation-delay:0.11s" x="582.4" y="344.2" width="26.0" height="17.8" rx="1.5" fill="#39d353"/><rect class="bar" style="animation-delay:0.12s" x="640.8" y="345.8" width="26.0" height="16.2" rx="1.5" fill="#39d353"/><rect class="bar" style="animation-delay:0.13s" x="699.3" y="349.6" width="26.0" height="12.4" rx="1.5" fill="#39d353"/><rect class="bar" style="animation-delay:0.14s" x="757.8" y="354.0" width="26.0" height="8.0" rx="1.5" fill="#39d353"/><polyline class="cum" pathLength="1" points="69.2,361.3 127.7,359.6 186.2,357.3 244.6,353.5 303.1,346.1 361.5,327.6 420.0,314.6 478.5,297.7 536.9,288.0 595.4,284.4 653.8,281.1 712.3,278.6 770.8,277.0" fill="none" stroke="#58a6ff" stroke-width="2" stroke-linejoin="round"/><g class="end"><circle cx="770.8" cy="277.0" r="3" fill="#58a6ff"/>
    <text x="764.8" y="270.0" fill="#58a6ff" font-size="11" font-weight="600" text-anchor="end">8.2k</text></g><text x="69.2" y="375" fill="#8b949e" font-size="9" text-anchor="middle">5/30</text><text x="770.8" y="375" fill="#8b949e" font-size="9" text-anchor="middle">8/22</text>
  </g>
  <g>
    <text x="40" y="397" fill="#c9d1d9" font-size="13" font-weight="600">Monthly · last 12 months</text>
    <text x="800" y="397" fill="#8b949e" font-size="11" text-anchor="end">期間別 ▮   累計 ―</text>
    <line x1="40" y1="518" x2="800" y2="518" stroke="#21262d"/>
    <rect class="bar" style="animation-delay:0.00s" x="58.7" y="511.8" width="26.0" height="6.2" rx="1.5" fill="#39d353"/><rect class="bar" style="animation-delay:0.01s" x="122.0" y="512.6" width="26.0" height="5.4" rx="1.5" fill="#39d353"/><rect class="bar" style="animation-delay:0.02s" x="185.3" y="514.9" width="26.0" height="3.1" rx="1.5" fill="#39d353"/><rect class="bar" style="animation-delay:0.04s" x="248.7" y="513.2" width="26.0" height="4.8" rx="1.5" fill="#39d353"/><rect class="bar" style="animation-delay:0.05s" x="312.0" y="513.5" width="26.0" height="4.5" rx="1.5" fill="#39d353"/><rect class="bar" style="animation-delay:0.06s" x="375.3" y="514.1" width="26.0" height="3.9" rx="1.5" fill="#39d353"/><rect class="bar" style="animation-delay:0.07s" x="438.7" y="511.0" width="26.0" height="7.0" rx="1.5" fill="#39d353"/><rect class="bar" style="animation-delay:0.08s" x="502.0" y="502.9" width="26.0" height="15.1" rx="1.5" fill="#39d353"/><rect class="bar" style="animation-delay:0.10s" x="565.3" y="501.3" width="26.0" height="16.7" rx="1.5" fill="#39d353"/><rect class="bar" style="animation-delay:0.11s" x="628.7" y="501.4" width="26.0" height="16.6" rx="1.5" fill="#39d353"/><rect class="bar" style="animation-delay:0.12s" x="692.0" y="426.0" width="26.0" height="92.0" rx="1.5" fill="#39d353"/><rect class="bar" style="animation-delay:0.13s" x="755.3" y="501.9" width="26.0" height="16.1" rx="1.5" fill="#39d353"/><polyline class="cum" pathLength="1" points="71.7,515.3 135.0,512.8 198.3,511.5 261.7,509.3 325.0,507.3 388.3,505.6 451.7,502.5 515.0,495.8 578.3,488.4 641.7,481.0 705.0,440.1 768.3,433.0" fill="none" stroke="#58a6ff" stroke-width="2" stroke-linejoin="round"/><g class="end"><circle cx="768.3" cy="433.0" r="3" fill="#58a6ff"/>
    <text x="762.3" y="426.0" fill="#58a6ff" font-size="11" font-weight="600" text-anchor="end">12.5k</text></g><text x="71.7" y="531" fill="#8b949e" font-size="9" text-anchor="middle">Sep</text><text x="135.0" y="531" fill="#8b949e" font-size="9" text-anchor="middle">Oct</text><text x="198.3" y="531" fill="#8b949e" font-size="9" text-anchor="middle">Nov</text><text x="261.7" y="531" fill="#8b949e" font-size="9" text-anchor="middle">Dec</text><text x="325.0" y="531" fill="#8b949e" font-size="9" text-anchor="middle">Jan</text><text x="388.3" y="531" fill="#8b949e" font-size="9" text-anchor="middle">Feb</text><text x="451.7" y="531" fill="#8b949e" font-size="9" text-anchor="middle">Mar</text><text x="515.0" y="531" fill="#8b949e" font-size="9" text-anchor="middle">Apr</text><text x="578.3" y="531" fill="#8b949e" font-size="9" text-anchor="middle">May</text><text x="641.7" y="531" fill="#8b949e" font-size="9" text-anchor="middle">Jun</text><text x="705.0" y="531" fill="#8b949e" font-size="9" text-anchor="middle">Jul</text><text x="768.3" y="531" fill="#8b949e" font-size="9" text-anchor="middle">Aug</text>
  </g>
</svg>