<svg width="840" height="532" viewBox="0 0 840 532" fill="none" xmlns="http://www.w3.org/2000/svg" font-family="Segoe UI, Ubuntu, sans-serif">
  <rect x="0.5" y="0.5" width="839" height="531" rx="10" fill="#0d1117" stroke="#30363d"/>
  <text x="40" y="38" fill="#58a6ff" font-size="18" font-weight="700">fujiya228 · GitHub Activity</text>
  <text x="800" y="38" fill="#8b949e" font-size="12" text-anchor="end">past year: 10.6k contributions</text>
  <g>
    <text x="40" y="80" fill="#c9d1d9" font-size="13" font-weight="600">Daily · last 30 days</text>
    <text x="800" y="80" fill="#8b949e" font-size="11" text-anchor="end">期間別 ▮  累計 ―  (計 4.5k)</text>
    <line x1="40" y1="198" x2="800" y2="198" stroke="#21262d"/>
    <rect x="44.8" y="173.4" width="15.7" height="24.6" rx="2" fill="#39d353"/><rect x="70.1" y="182.3" width="15.7" height="15.7" rx="2" fill="#39d353"/><rect x="95.5" y="191.7" width="15.7" height="6.3" rx="2" fill="#39d353"/><rect x="120.8" y="191.7" width="15.7" height="6.3" rx="2" fill="#39d353"/><rect x="146.1" y="186.7" width="15.7" height="11.3" rx="2" fill="#39d353"/><rect x="171.5" y="177.6" width="15.7" height="20.4" rx="2" fill="#39d353"/><rect x="196.8" y="187.8" width="15.7" height="10.2" rx="2" fill="#39d353"/><rect x="222.1" y="186.2" width="15.7" height="11.8" rx="2" fill="#39d353"/><rect x="247.5" y="167.1" width="15.7" height="30.9" rx="2" fill="#39d353"/><rect x="272.8" y="189.1" width="15.7" height="8.9" rx="2" fill="#39d353"/><rect x="298.1" y="178.1" width="15.7" height="19.9" rx="2" fill="#39d353"/><rect x="323.5" y="158.5" width="15.7" height="39.5" rx="2" fill="#39d353"/><rect x="348.8" y="159.3" width="15.7" height="38.7" rx="2" fill="#39d353"/><rect x="374.1" y="161.4" width="15.7" height="36.6" rx="2" fill="#39d353"/><rect x="399.5" y="92.0" width="15.7" height="106.0" rx="2" fill="#39d353"/><rect x="424.8" y="147.0" width="15.7" height="51.0" rx="2" fill="#39d353"/><rect x="450.1" y="121.6" width="15.7" height="76.4" rx="2" fill="#39d353"/><rect x="475.5" y="104.8" width="15.7" height="93.2" rx="2" fill="#39d353"/><rect x="500.8" y="148.8" width="15.7" height="49.2" rx="2" fill="#39d353"/><rect x="526.1" y="189.9" width="15.7" height="8.1" rx="2" fill="#39d353"/><rect x="551.5" y="116.3" width="15.7" height="81.7" rx="2" fill="#39d353"/><rect x="576.8" y="109.3" width="15.7" height="88.7" rx="2" fill="#39d353"/><rect x="602.1" y="126.8" width="15.7" height="71.2" rx="2" fill="#39d353"/><rect x="627.5" y="146.2" width="15.7" height="51.8" rx="2" fill="#39d353"/><rect x="652.8" y="168.9" width="15.7" height="29.1" rx="2" fill="#39d353"/><rect x="678.1" y="177.3" width="15.7" height="20.7" rx="2" fill="#39d353"/><rect x="703.5" y="141.2" width="15.7" height="56.8" rx="2" fill="#39d353"/><rect x="728.8" y="189.6" width="15.7" height="8.4" rx="2" fill="#39d353"/><rect x="754.1" y="153.5" width="15.7" height="44.5" rx="2" fill="#39d353"/><rect x="779.5" y="145.7" width="15.7" height="52.3" rx="2" fill="#39d353"/><polyline points="52.7,195.8 78.0,194.3 103.3,193.8 128.7,193.2 154.0,192.2 179.3,190.3 204.7,189.4 230.0,188.4 255.3,185.6 280.7,184.7 306.0,182.9 331.3,179.4 356.7,175.9 382.0,172.5 407.3,162.9 432.7,158.3 458.0,151.4 483.3,142.9 508.7,138.5 534.0,137.8 559.3,130.4 584.7,122.3 610.0,115.9 635.3,111.2 660.7,108.5 686.0,106.7 711.3,101.5 736.7,100.8 762.0,96.7 787.3,92.0" fill="none" stroke="#58a6ff" stroke-width="2" stroke-linejoin="round"/><circle cx="787.3" cy="92.0" r="3" fill="#58a6ff"/>
    <text x="781.3" y="85.0" fill="#58a6ff" font-size="11" font-weight="600" text-anchor="end">4.5k</text><text x="52.7" y="211" fill="#8b949e" font-size="9" text-anchor="middle">6/20</text><text x="787.3" y="211" fill="#8b949e" font-size="9" text-anchor="middle">7/19</text>
  </g>
  <g>
    <text x="40" y="230" fill="#c9d1d9" font-size="13" font-weight="600">Weekly · last 13 weeks</text>
    <text x="800" y="230" fill="#8b949e" font-size="11" text-anchor="end">期間別 ▮  累計 ―  (計 6.2k)</text>
    <line x1="40" y1="348" x2="800" y2="348" stroke="#21262d"/>
    <rect x="56.2" y="338.2" width="26.0" height="9.8" rx="2" fill="#39d353"/><rect x="114.7" y="321.9" width="26.0" height="26.1" rx="2" fill="#39d353"/><rect x="173.2" y="325.7" width="26.0" height="22.3" rx="2" fill="#39d353"/><rect x="231.6" y="339.5" width="26.0" height="8.5" rx="2" fill="#39d353"/><rect x="290.1" y="338.8" width="26.0" height="9.2" rx="2" fill="#39d353"/><rect x="348.5" y="344.6" width="26.0" height="3.4" rx="2" fill="#39d353"/><rect x="407.0" y="336.5" width="26.0" height="11.5" rx="2" fill="#39d353"/><rect x="465.5" y="336.1" width="26.0" height="11.9" rx="2" fill="#39d353"/><rect x="523.9" y="329.6" width="26.0" height="18.4" rx="2" fill="#39d353"/><rect x="582.4" y="314.7" width="26.0" height="33.3" rx="2" fill="#39d353"/><rect x="640.8" y="242.0" width="26.0" height="106.0" rx="2" fill="#39d353"/><rect x="699.3" y="265.5" width="26.0" height="82.5" rx="2" fill="#39d353"/><rect x="757.8" y="309.9" width="26.0" height="38.1" rx="2" fill="#39d353"/><polyline points="69.2,345.3 127.7,338.0 186.2,331.8 244.6,329.4 303.1,326.9 361.5,325.9 420.0,322.7 478.5,319.4 536.9,314.3 595.4,305.0 653.8,275.5 712.3,252.6 770.8,242.0" fill="none" stroke="#58a6ff" stroke-width="2" stroke-linejoin="round"/><circle cx="770.8" cy="242.0" r="3" fill="#58a6ff"/>
    <text x="764.8" y="235.0" fill="#58a6ff" font-size="11" font-weight="600" text-anchor="end">6.2k</text><text x="69.2" y="361" fill="#8b949e" font-size="9" text-anchor="middle">4/23</text><text x="770.8" y="361" fill="#8b949e" font-size="9" text-anchor="middle">7/16</text>
  </g>
  <g>
    <text x="40" y="380" fill="#c9d1d9" font-size="13" font-weight="600">Monthly · last 12 months</text>
    <text x="800" y="380" fill="#8b949e" font-size="11" text-anchor="end">期間別 ▮  累計 ―  (計 9.9k)</text>
    <line x1="40" y1="498" x2="800" y2="498" stroke="#21262d"/>
    <rect x="58.7" y="481.6" width="26.0" height="16.4" rx="2" fill="#39d353"/><rect x="122.0" y="486.8" width="26.0" height="11.2" rx="2" fill="#39d353"/><rect x="185.3" y="488.2" width="26.0" height="9.8" rx="2" fill="#39d353"/><rect x="248.7" y="492.4" width="26.0" height="5.6" rx="2" fill="#39d353"/><rect x="312.0" y="489.4" width="26.0" height="8.6" rx="2" fill="#39d353"/><rect x="375.3" y="489.9" width="26.0" height="8.1" rx="2" fill="#39d353"/><rect x="438.7" y="491.0" width="26.0" height="7.0" rx="2" fill="#39d353"/><rect x="502.0" y="485.4" width="26.0" height="12.6" rx="2" fill="#39d353"/><rect x="565.3" y="470.6" width="26.0" height="27.4" rx="2" fill="#39d353"/><rect x="628.7" y="467.8" width="26.0" height="30.2" rx="2" fill="#39d353"/><rect x="692.0" y="468.0" width="26.0" height="30.0" rx="2" fill="#39d353"/><rect x="755.3" y="392.0" width="26.0" height="106.0" rx="2" fill="#39d353"/><polyline points="71.7,491.6 135.0,487.3 198.3,483.5 261.7,481.3 325.0,477.9 388.3,474.8 451.7,472.1 515.0,467.2 578.3,456.5 641.7,444.8 705.0,433.2 768.3,392.0" fill="none" stroke="#58a6ff" stroke-width="2" stroke-linejoin="round"/><circle cx="768.3" cy="392.0" r="3" fill="#58a6ff"/>
    <text x="762.3" y="385.0" fill="#58a6ff" font-size="11" font-weight="600" text-anchor="end">9.9k</text><text x="71.7" y="511" fill="#8b949e" font-size="9" text-anchor="middle">Aug</text><text x="135.0" y="511" fill="#8b949e" font-size="9" text-anchor="middle">Sep</text><text x="198.3" y="511" fill="#8b949e" font-size="9" text-anchor="middle">Oct</text><text x="261.7" y="511" fill="#8b949e" font-size="9" text-anchor="middle">Nov</text><text x="325.0" y="511" fill="#8b949e" font-size="9" text-anchor="middle">Dec</text><text x="388.3" y="511" fill="#8b949e" font-size="9" text-anchor="middle">Jan</text><text x="451.7" y="511" fill="#8b949e" font-size="9" text-anchor="middle">Feb</text><text x="515.0" y="511" fill="#8b949e" font-size="9" text-anchor="middle">Mar</text><text x="578.3" y="511" fill="#8b949e" font-size="9" text-anchor="middle">Apr</text><text x="641.7" y="511" fill="#8b949e" font-size="9" text-anchor="middle">May</text><text x="705.0" y="511" fill="#8b949e" font-size="9" text-anchor="middle">Jun</text><text x="768.3" y="511" fill="#8b949e" font-size="9" text-anchor="middle">Jul</text>
  </g>
</svg>