<svg width="840" height="396" viewBox="0 0 840 396" fill="none" xmlns="http://www.w3.org/2000/svg" font-family="Segoe UI, Ubuntu, sans-serif">
  <rect x="0.5" y="0.5" width="839" height="395" rx="10" fill="#0d1117" stroke="#30363d"/>
  <text x="40" y="40" fill="#58a6ff" font-size="18" font-weight="700">fujiya228 · GitHub Activity</text>
  <text x="800" y="40" fill="#8b949e" font-size="12" text-anchor="end">all time: 31.8k contributions since 2019</text>
  <g>
    <text x="40" y="85" fill="#c9d1d9" font-size="13" font-weight="600">Monthly · all time</text>
    <text x="800" y="85" fill="#8b949e" font-size="11" text-anchor="end">期間別 ▮   累計 ―</text>
    <line x1="40" y1="206" x2="800" y2="206" stroke="#21262d"/>
    <rect x="41.7" y="206.0" width="5.5" height="0.0" rx="1.5" fill="#39d353"/><rect x="50.6" y="205.9" width="5.5" height="0.1" rx="1.5" fill="#39d353"/><rect x="59.6" y="205.7" width="5.5" height="0.3" rx="1.5" fill="#39d353"/><rect x="68.5" y="206.0" width="5.5" height="0.0" rx="1.5" fill="#39d353"/><rect x="77.5" y="206.0" width="5.5" height="0.0" rx="1.5" fill="#39d353"/><rect x="86.4" y="205.8" width="5.5" height="0.2" rx="1.5" fill="#39d353"/><rect x="95.3" y="205.4" width="5.5" height="0.6" rx="1.5" fill="#39d353"/><rect x="104.3" y="203.0" width="5.5" height="3.0" rx="1.5" fill="#39d353"/><rect x="113.2" y="198.5" width="5.5" height="7.5" rx="1.5" fill="#39d353"/><rect x="122.2" y="202.7" width="5.5" height="3.3" rx="1.5" fill="#39d353"/><rect x="131.1" y="204.1" width="5.5" height="1.9" rx="1.5" fill="#39d353"/><rect x="140.1" y="204.8" width="5.5" height="1.2" rx="1.5" fill="#39d353"/><rect x="149.0" y="203.7" width="5.5" height="2.3" rx="1.5" fill="#39d353"/><rect x="157.9" y="205.1" width="5.5" height="0.9" rx="1.5" fill="#39d353"/><rect x="166.9" y="205.5" width="5.5" height="0.5" rx="1.5" fill="#39d353"/><rect x="175.8" y="206.0" width="5.5" height="0.0" rx="1.5" fill="#39d353"/><rect x="184.8" y="205.5" width="5.5" height="0.5" rx="1.5" fill="#39d353"/><rect x="193.7" y="203.7" width="5.5" height="2.3" rx="1.5" fill="#39d353"/><rect x="202.6" y="203.6" width="5.5" height="2.4" rx="1.5" fill="#39d353"/><rect x="211.6" y="205.8" width="5.5" height="0.2" rx="1.5" fill="#39d353"/><rect x="220.5" y="205.9" width="5.5" height="0.1" rx="1.5" fill="#39d353"/><rect x="229.5" y="204.3" width="5.5" height="1.7" rx="1.5" fill="#39d353"/><rect x="238.4" y="203.6" width="5.5" height="2.4" rx="1.5" fill="#39d353"/><rect x="247.3" y="203.4" width="5.5" height="2.6" rx="1.5" fill="#39d353"/><rect x="256.3" y="199.8" width="5.5" height="6.2" rx="1.5" fill="#39d353"/><rect x="265.2" y="200.9" width="5.5" height="5.1" rx="1.5" fill="#39d353"/><rect x="274.2" y="202.1" width="5.5" height="3.9" rx="1.5" fill="#39d353"/><rect x="283.1" y="203.4" width="5.5" height="2.6" rx="1.5" fill="#39d353"/><rect x="292.1" y="201.5" width="5.5" height="4.5" rx="1.5" fill="#39d353"/><rect x="301.0" y="202.0" width="5.5" height="4.0" rx="1.5" fill="#39d353"/><rect x="309.9" y="202.8" width="5.5" height="3.2" rx="1.5" fill="#39d353"/><rect x="318.9" y="198.4" width="5.5" height="7.6" rx="1.5" fill="#39d353"/><rect x="327.8" y="191.7" width="5.5" height="14.3" rx="1.5" fill="#39d353"/><rect x="336.8" y="194.5" width="5.5" height="11.5" rx="1.5" fill="#39d353"/><rect x="345.7" y="200.3" width="5.5" height="5.8" rx="1.5" fill="#39d353"/><rect x="354.6" y="199.5" width="5.5" height="6.5" rx="1.5" fill="#39d353"/><rect x="363.6" y="191.2" width="5.5" height="14.8" rx="1.5" fill="#39d353"/><rect x="372.5" y="199.0" width="5.5" height="7.0" rx="1.5" fill="#39d353"/><rect x="381.5" y="196.7" width="5.5" height="9.3" rx="1.5" fill="#39d353"/><rect x="390.4" y="196.3" width="5.5" height="9.7" rx="1.5" fill="#39d353"/><rect x="399.3" y="193.9" width="5.5" height="12.1" rx="1.5" fill="#39d353"/><rect x="408.3" y="196.3" width="5.5" height="9.7" rx="1.5" fill="#39d353"/><rect x="417.2" y="194.6" width="5.5" height="11.4" rx="1.5" fill="#39d353"/><rect x="426.2" y="195.1" width="5.5" height="10.9" rx="1.5" fill="#39d353"/><rect x="435.1" y="200.7" width="5.5" height="5.3" rx="1.5" fill="#39d353"/><rect x="444.1" y="201.1" width="5.5" height="4.9" rx="1.5" fill="#39d353"/><rect x="453.0" y="202.0" width="5.5" height="4.0" rx="1.5" fill="#39d353"/><rect x="461.9" y="202.9" width="5.5" height="3.1" rx="1.5" fill="#39d353"/><rect x="470.9" y="197.4" width="5.5" height="8.6" rx="1.5" fill="#39d353"/><rect x="479.8" y="195.5" width="5.5" height="10.5" rx="1.5" fill="#39d353"/><rect x="488.8" y="191.0" width="5.5" height="15.0" rx="1.5" fill="#39d353"/><rect x="497.7" y="192.5" width="5.5" height="13.5" rx="1.5" fill="#39d353"/><rect x="506.6" y="188.4" width="5.5" height="17.6" rx="1.5" fill="#39d353"/><rect x="515.6" y="189.4" width="5.5" height="16.6" rx="1.5" fill="#39d353"/><rect x="524.5" y="191.7" width="5.5" height="14.3" rx="1.5" fill="#39d353"/><rect x="533.5" y="195.8" width="5.5" height="10.2" rx="1.5" fill="#39d353"/><rect x="542.4" y="190.0" width="5.5" height="16.0" rx="1.5" fill="#39d353"/><rect x="551.3" y="193.7" width="5.5" height="12.3" rx="1.5" fill="#39d353"/><rect x="560.3" y="189.2" width="5.5" height="16.8" rx="1.5" fill="#39d353"/><rect x="569.2" y="195.1" width="5.5" height="10.9" rx="1.5" fill="#39d353"/><rect x="578.2" y="195.7" width="5.5" height="10.3" rx="1.5" fill="#39d353"/><rect x="587.1" y="192.4" width="5.5" height="13.6" rx="1.5" fill="#39d353"/><rect x="596.1" y="193.2" width="5.5" height="12.8" rx="1.5" fill="#39d353"/><rect x="605.0" y="199.7" width="5.5" height="6.3" rx="1.5" fill="#39d353"/><rect x="613.9" y="201.9" width="5.5" height="4.1" rx="1.5" fill="#39d353"/><rect x="622.9" y="196.8" width="5.5" height="9.2" rx="1.5" fill="#39d353"/><rect x="631.8" y="195.7" width="5.5" height="10.3" rx="1.5" fill="#39d353"/><rect x="640.8" y="190.0" width="5.5" height="16.0" rx="1.5" fill="#39d353"/><rect x="649.7" y="190.4" width="5.5" height="15.6" rx="1.5" fill="#39d353"/><rect x="658.6" y="186.1" width="5.5" height="19.9" rx="1.5" fill="#39d353"/><rect x="667.6" y="193.3" width="5.5" height="12.7" rx="1.5" fill="#39d353"/><rect x="676.5" y="200.8" width="5.5" height="5.2" rx="1.5" fill="#39d353"/><rect x="685.5" y="191.6" width="5.5" height="14.4" rx="1.5" fill="#39d353"/><rect x="694.4" y="191.8" width="5.5" height="14.2" rx="1.5" fill="#39d353"/><rect x="703.3" y="196.3" width="5.5" height="9.7" rx="1.5" fill="#39d353"/><rect x="712.3" y="197.5" width="5.5" height="8.5" rx="1.5" fill="#39d353"/><rect x="721.2" y="201.1" width="5.5" height="4.9" rx="1.5" fill="#39d353"/><rect x="730.2" y="198.5" width="5.5" height="7.5" rx="1.5" fill="#39d353"/><rect x="739.1" y="199.0" width="5.5" height="7.0" rx="1.5" fill="#39d353"/><rect x="748.1" y="200.0" width="5.5" height="6.0" rx="1.5" fill="#39d353"/><rect x="757.0" y="195.1" width="5.5" height="10.9" rx="1.5" fill="#39d353"/><rect x="765.9" y="182.3" width="5.5" height="23.7" rx="1.5" fill="#39d353"/><rect x="774.9" y="179.8" width="5.5" height="26.2" rx="1.5" fill="#39d353"/><rect x="783.8" y="180.0" width="5.5" height="26.0" rx="1.5" fill="#39d353"/><rect x="792.8" y="114.0" width="5.5" height="92.0" rx="1.5" fill="#39d353"/><polyline points="44.5,206.0 53.4,206.0 62.4,205.9 71.3,205.9 80.2,205.9 89.2,205.9 98.1,205.9 107.1,205.5 116.0,204.7 124.9,204.3 133.9,204.1 142.8,204.0 151.8,203.7 160.7,203.6 169.6,203.6 178.6,203.6 187.5,203.5 196.5,203.3 205.4,203.0 214.4,203.0 223.3,203.0 232.2,202.8 241.2,202.5 250.1,202.2 259.1,201.5 268.0,201.0 276.9,200.5 285.9,200.2 294.8,199.7 303.8,199.3 312.7,198.9 321.6,198.1 330.6,196.5 339.5,195.2 348.5,194.5 357.4,193.8 366.4,192.2 375.3,191.4 384.2,190.3 393.2,189.3 402.1,187.9 411.1,186.8 420.0,185.6 428.9,184.3 437.9,183.8 446.8,183.2 455.8,182.8 464.7,182.4 473.6,181.4 482.6,180.3 491.5,178.6 500.5,177.1 509.4,175.1 518.4,173.3 527.3,171.7 536.2,170.5 545.2,168.7 554.1,167.4 563.1,165.5 572.0,164.3 580.9,163.1 589.9,161.6 598.8,160.2 607.8,159.5 616.7,159.0 625.6,158.0 634.6,156.8 643.5,155.0 652.5,153.3 661.4,151.1 670.4,149.6 679.3,149.1 688.2,147.5 697.2,145.9 706.1,144.8 715.1,143.8 724.0,143.3 732.9,142.4 741.9,141.7 750.8,141.0 759.8,139.8 768.7,137.1 777.6,134.2 786.6,131.3 795.5,121.0" fill="none" stroke="#58a6ff" stroke-width="2" stroke-linejoin="round"/><circle cx="795.5" cy="121.0" r="3" fill="#58a6ff"/>
    <text x="789.5" y="114.0" fill="#58a6ff" font-size="11" font-weight="600" text-anchor="end">31.8k</text><text x="98.1" y="219" fill="#8b949e" font-size="9" text-anchor="middle">2020</text><text x="205.4" y="219" fill="#8b949e" font-size="9" text-anchor="middle">2021</text><text x="312.7" y="219" fill="#8b949e" font-size="9" text-anchor="middle">2022</text><text x="420.0" y="219" fill="#8b949e" font-size="9" text-anchor="middle">2023</text><text x="527.3" y="219" fill="#8b949e" font-size="9" text-anchor="middle">2024</text><text x="634.6" y="219" fill="#8b949e" font-size="9" text-anchor="middle">2025</text><text x="741.9" y="219" fill="#8b949e" font-size="9" text-anchor="middle">2026</text>
  </g>
  <g>
    <text x="40" y="241" fill="#c9d1d9" font-size="13" font-weight="600">Yearly</text>
    <text x="800" y="241" fill="#8b949e" font-size="11" text-anchor="end">期間別 ▮   累計 ―</text>
    <line x1="40" y1="362" x2="800" y2="362" stroke="#21262d"/>
    <rect x="74.5" y="361.7" width="26.0" height="0.3" rx="1.5" fill="#39d353"/><rect x="169.5" y="350.6" width="26.0" height="11.4" rx="1.5" fill="#39d353"/><rect x="264.5" y="344.9" width="26.0" height="17.1" rx="1.5" fill="#39d353"/><rect x="359.5" y="308.6" width="26.0" height="53.4" rx="1.5" fill="#39d353"/><rect x="454.5" y="303.8" width="26.0" height="58.2" rx="1.5" fill="#39d353"/><rect x="549.5" y="296.4" width="26.0" height="65.6" rx="1.5" fill="#39d353"/><rect x="644.5" y="295.4" width="26.0" height="66.6" rx="1.5" fill="#39d353"/><rect x="739.5" y="270.0" width="26.0" height="92.0" rx="1.5" fill="#39d353"/><polyline points="87.5,361.9 182.5,359.3 277.5,355.3 372.5,342.8 467.5,329.3 562.5,314.0 657.5,298.4 752.5,277.0" fill="none" stroke="#58a6ff" stroke-width="2" stroke-linejoin="round"/><circle cx="752.5" cy="277.0" r="3" fill="#58a6ff"/>
    <text x="746.5" y="270.0" fill="#58a6ff" font-size="11" font-weight="600" text-anchor="end">31.8k</text><text x="87.5" y="375" fill="#8b949e" font-size="9" text-anchor="middle">2019</text><text x="182.5" y="375" fill="#8b949e" font-size="9" text-anchor="middle">2020</text><text x="277.5" y="375" fill="#8b949e" font-size="9" text-anchor="middle">2021</text><text x="372.5" y="375" fill="#8b949e" font-size="9" text-anchor="middle">2022</text><text x="467.5" y="375" fill="#8b949e" font-size="9" text-anchor="middle">2023</text><text x="562.5" y="375" fill="#8b949e" font-size="9" text-anchor="middle">2024</text><text x="657.5" y="375" fill="#8b949e" font-size="9" text-anchor="middle">2025</text><text x="752.5" y="375" fill="#8b949e" font-size="9" text-anchor="middle">2026</text>
  </g>
</svg>