<svg width="840" height="552" viewBox="0 0 840 552" fill="none" xmlns="http://www.w3.org/2000/svg" font-family="Segoe UI, Ubuntu, sans-serif">
  <rect x="0.5" y="0.5" width="839" height="551" rx="10" fill="#0d1117" stroke="#30363d"/>
  <text x="40" y="40" fill="#58a6ff" font-size="18" font-weight="700">fujiya228 · GitHub Activity</text>
  <text x="800" y="40" fill="#8b949e" font-size="12" text-anchor="end">past year: 10.2k contributions</text>
  <g>
    <text x="40" y="85" fill="#c9d1d9" font-size="13" font-weight="600">Daily · last 30 days</text>
    <text x="800" y="85" fill="#8b949e" font-size="11" text-anchor="end">期間別 ▮   累計 ―</text>
    <line x1="40" y1="206" x2="800" y2="206" stroke="#21262d"/>
    <rect x="44.8" y="184.6" width="15.7" height="21.4" rx="1.5" fill="#39d353"/><rect x="70.1" y="192.4" width="15.7" height="13.6" rx="1.5" fill="#39d353"/><rect x="95.5" y="200.5" width="15.7" height="5.5" rx="1.5" fill="#39d353"/><rect x="120.8" y="200.5" width="15.7" height="5.5" rx="1.5" fill="#39d353"/><rect x="146.1" y="196.2" width="15.7" height="9.8" rx="1.5" fill="#39d353"/><rect x="171.5" y="188.3" width="15.7" height="17.7" rx="1.5" fill="#39d353"/><rect x="196.8" y="197.1" width="15.7" height="8.9" rx="1.5" fill="#39d353"/><rect x="222.1" y="195.8" width="15.7" height="10.2" rx="1.5" fill="#39d353"/><rect x="247.5" y="179.2" width="15.7" height="26.8" rx="1.5" fill="#39d353"/><rect x="272.8" y="198.3" width="15.7" height="7.7" rx="1.5" fill="#39d353"/><rect x="298.1" y="188.7" width="15.7" height="17.3" rx="1.5" fill="#39d353"/><rect x="323.5" y="171.7" width="15.7" height="34.3" rx="1.5" fill="#39d353"/><rect x="348.8" y="172.4" width="15.7" height="33.6" rx="1.5" fill="#39d353"/><rect x="374.1" y="174.2" width="15.7" height="31.8" rx="1.5" fill="#39d353"/><rect x="399.5" y="114.0" width="15.7" height="92.0" rx="1.5" fill="#39d353"/><rect x="424.8" y="161.7" width="15.7" height="44.3" rx="1.5" fill="#39d353"/><rect x="450.1" y="139.7" width="15.7" height="66.3" rx="1.5" fill="#39d353"/><rect x="475.5" y="125.1" width="15.7" height="80.9" rx="1.5" fill="#39d353"/><rect x="500.8" y="163.3" width="15.7" height="42.7" rx="1.5" fill="#39d353"/><rect x="526.1" y="199.0" width="15.7" height="7.0" rx="1.5" fill="#39d353"/><rect x="551.5" y="135.1" width="15.7" height="70.9" rx="1.5" fill="#39d353"/><rect x="576.8" y="129.0" width="15.7" height="77.0" rx="1.5" fill="#39d353"/><rect x="602.1" y="144.2" width="15.7" height="61.8" rx="1.5" fill="#39d353"/><rect x="627.5" y="161.0" width="15.7" height="45.0" rx="1.5" fill="#39d353"/><rect x="652.8" y="180.8" width="15.7" height="25.2" rx="1.5" fill="#39d353"/><rect x="678.1" y="188.1" width="15.7" height="17.9" rx="1.5" fill="#39d353"/><rect x="703.5" y="156.7" width="15.7" height="49.3" rx="1.5" fill="#39d353"/><rect x="728.8" y="198.7" width="15.7" height="7.3" rx="1.5" fill="#39d353"/><rect x="754.1" y="167.4" width="15.7" height="38.6" rx="1.5" fill="#39d353"/><rect x="779.5" y="159.7" width="15.7" height="46.3" rx="1.5" fill="#39d353"/><polyline points="52.7,204.2 78.0,203.1 103.3,202.6 128.7,202.2 154.0,201.3 179.3,199.9 204.7,199.1 230.0,198.3 255.3,196.0 280.7,195.4 306.0,193.9 331.3,191.1 356.7,188.3 382.0,185.6 407.3,177.9 432.7,174.2 458.0,168.7 483.3,161.9 508.7,158.3 534.0,157.7 559.3,151.8 584.7,145.4 610.0,140.2 635.3,136.4 660.7,134.3 686.0,132.8 711.3,128.7 736.7,128.1 762.0,124.9 787.3,121.0" fill="none" stroke="#58a6ff" stroke-width="2" stroke-linejoin="round"/><circle cx="787.3" cy="121.0" r="3" fill="#58a6ff"/>
    <text x="781.3" y="114.0" fill="#58a6ff" font-size="11" font-weight="600" text-anchor="end">4.5k</text><text x="52.7" y="219" fill="#8b949e" font-size="9" text-anchor="middle">6/20</text><text x="787.3" y="219" fill="#8b949e" font-size="9" text-anchor="middle">7/19</text>
  </g>
  <g>
    <text x="40" y="241" fill="#c9d1d9" font-size="13" font-weight="600">Weekly · last 13 weeks</text>
    <text x="800" y="241" fill="#8b949e" font-size="11" text-anchor="end">期間別 ▮   累計 ―</text>
    <line x1="40" y1="362" x2="800" y2="362" stroke="#21262d"/>
    <rect x="56.2" y="353.5" width="26.0" height="8.5" rx="1.5" fill="#39d353"/><rect x="114.7" y="337.5" width="26.0" height="24.5" rx="1.5" fill="#39d353"/><rect x="173.2" y="346.7" width="26.0" height="15.3" rx="1.5" fill="#39d353"/><rect x="231.6" y="353.7" width="26.0" height="8.3" rx="1.5" fill="#39d353"/><rect x="290.1" y="354.3" width="26.0" height="7.7" rx="1.5" fill="#39d353"/><rect x="348.5" y="358.5" width="26.0" height="3.5" rx="1.5" fill="#39d353"/><rect x="407.0" y="353.7" width="26.0" height="8.3" rx="1.5" fill="#39d353"/><rect x="465.5" y="350.5" width="26.0" height="11.5" rx="1.5" fill="#39d353"/><rect x="523.9" y="343.3" width="26.0" height="18.7" rx="1.5" fill="#39d353"/><rect x="582.4" y="325.2" width="26.0" height="36.8" rx="1.5" fill="#39d353"/><rect x="640.8" y="270.0" width="26.0" height="92.0" rx="1.5" fill="#39d353"/><rect x="699.3" y="297.5" width="26.0" height="64.5" rx="1.5" fill="#39d353"/><rect x="757.8" y="342.7" width="26.0" height="19.3" rx="1.5" fill="#39d353"/><polyline points="69.2,359.7 127.7,353.2 186.2,349.2 244.6,346.9 303.1,344.9 361.5,344.0 420.0,341.8 478.5,338.7 536.9,333.7 595.4,323.9 653.8,299.4 712.3,282.2 770.8,277.0" fill="none" stroke="#58a6ff" stroke-width="2" stroke-linejoin="round"/><circle cx="770.8" cy="277.0" r="3" fill="#58a6ff"/>
    <text x="764.8" y="270.0" fill="#58a6ff" font-size="11" font-weight="600" text-anchor="end">6.2k</text><text x="69.2" y="375" fill="#8b949e" font-size="9" text-anchor="middle">4/25</text><text x="770.8" y="375" fill="#8b949e" font-size="9" text-anchor="middle">7/18</text>
  </g>
  <g>
    <text x="40" y="397" fill="#c9d1d9" font-size="13" font-weight="600">Monthly · last 12 months</text>
    <text x="800" y="397" fill="#8b949e" font-size="11" text-anchor="end">期間別 ▮   累計 ―</text>
    <line x1="40" y1="518" x2="800" y2="518" stroke="#21262d"/>
    <rect x="58.7" y="503.8" width="26.0" height="14.2" rx="1.5" fill="#39d353"/><rect x="122.0" y="508.3" width="26.0" height="9.7" rx="1.5" fill="#39d353"/><rect x="185.3" y="509.5" width="26.0" height="8.5" rx="1.5" fill="#39d353"/><rect x="248.7" y="513.1" width="26.0" height="4.9" rx="1.5" fill="#39d353"/><rect x="312.0" y="510.5" width="26.0" height="7.5" rx="1.5" fill="#39d353"/><rect x="375.3" y="511.0" width="26.0" height="7.0" rx="1.5" fill="#39d353"/><rect x="438.7" y="512.0" width="26.0" height="6.0" rx="1.5" fill="#39d353"/><rect x="502.0" y="507.1" width="26.0" height="10.9" rx="1.5" fill="#39d353"/><rect x="565.3" y="494.3" width="26.0" height="23.7" rx="1.5" fill="#39d353"/><rect x="628.7" y="491.8" width="26.0" height="26.2" rx="1.5" fill="#39d353"/><rect x="692.0" y="492.0" width="26.0" height="26.0" rx="1.5" fill="#39d353"/><rect x="755.3" y="426.0" width="26.0" height="92.0" rx="1.5" fill="#39d353"/><polyline points="71.7,512.9 135.0,509.4 198.3,506.4 261.7,504.6 325.0,501.9 388.3,499.4 451.7,497.2 515.0,493.3 578.3,484.8 641.7,475.4 705.0,466.0 768.3,433.0" fill="none" stroke="#58a6ff" stroke-width="2" stroke-linejoin="round"/><circle cx="768.3" cy="433.0" r="3" fill="#58a6ff"/>
    <text x="762.3" y="426.0" fill="#58a6ff" font-size="11" font-weight="600" text-anchor="end">9.9k</text><text x="71.7" y="531" fill="#8b949e" font-size="9" text-anchor="middle">Aug</text><text x="135.0" y="531" fill="#8b949e" font-size="9" text-anchor="middle">Sep</text><text x="198.3" y="531" fill="#8b949e" font-size="9" text-anchor="middle">Oct</text><text x="261.7" y="531" fill="#8b949e" font-size="9" text-anchor="middle">Nov</text><text x="325.0" y="531" fill="#8b949e" font-size="9" text-anchor="middle">Dec</text><text x="388.3" y="531" fill="#8b949e" font-size="9" text-anchor="middle">Jan</text><text x="451.7" y="531" fill="#8b949e" font-size="9" text-anchor="middle">Feb</text><text x="515.0" y="531" fill="#8b949e" font-size="9" text-anchor="middle">Mar</text><text x="578.3" y="531" fill="#8b949e" font-size="9" text-anchor="middle">Apr</text><text x="641.7" y="531" fill="#8b949e" font-size="9" text-anchor="middle">May</text><text x="705.0" y="531" fill="#8b949e" font-size="9" text-anchor="middle">Jun</text><text x="768.3" y="531" fill="#8b949e" font-size="9" text-anchor="middle">Jul</text>
  </g>
</svg>