<svg width="840" height="396" viewBox="0 0 840 396" fill="none" xmlns="http://www.w3.org/2000/svg" font-family="Segoe UI, Ubuntu, sans-serif">
  <style>
    /* auto-play on render — GitHub's img-embedded SVG runs CSS animation but not :hover/JS.
       base state = final, so if animation is unsupported the finished card still shows. */
    .bar{transform-box:fill-box;transform-origin:bottom;animation:grow .9s ease-out backwards}
    .cum{stroke-dasharray:1;animation:draw 1.4s ease-out .25s backwards}
    .end{animation:fade .6s ease-out 1.25s backwards}
    @keyframes grow{from{transform:scaleY(0)}}
    @keyframes draw{from{stroke-dashoffset:1}to{stroke-dashoffset:0}}
    @keyframes fade{from{opacity:0}}
    @media (prefers-reduced-motion:reduce){.bar,.cum,.end{animation:none}}
  </style>
  <rect x="0.5" y="0.5" width="839" height="395" rx="10" fill="#0d1117" stroke="#30363d"/>
  <text x="40" y="40" fill="#58a6ff" font-size="18" font-weight="700">fujiya228 · GitHub Activity</text>
  <text x="800" y="40" fill="#8b949e" font-size="12" text-anchor="end">all time: 32k contributions since 2019</text>
  <g>
    <text x="40" y="85" fill="#c9d1d9" font-size="13" font-weight="600">Monthly · all time</text>
    <text x="800" y="85" fill="#8b949e" font-size="11" text-anchor="end">期間別 ▮   累計 ―</text>
    <line x1="40" y1="206" x2="800" y2="206" stroke="#21262d"/>
    <rect class="bar" style="animation-delay:0.00s" x="41.7" y="206.0" width="5.5" height="0.0" rx="1.5" fill="#39d353"/><rect class="bar" style="animation-delay:0.01s" x="50.6" y="205.9" width="5.5" height="0.1" rx="1.5" fill="#39d353"/><rect class="bar" style="animation-delay:0.02s" x="59.6" y="205.7" width="5.5" height="0.3" rx="1.5" fill="#39d353"/><rect class="bar" style="animation-delay:0.04s" x="68.5" y="206.0" width="5.5" height="0.0" rx="1.5" fill="#39d353"/><rect class="bar" style="animation-delay:0.05s" x="77.5" y="206.0" width="5.5" height="0.0" rx="1.5" fill="#39d353"/><rect class="bar" style="animation-delay:0.06s" x="86.4" y="205.8" width="5.5" height="0.2" rx="1.5" fill="#39d353"/><rect class="bar" style="animation-delay:0.07s" x="95.3" y="205.5" width="5.5" height="0.5" rx="1.5" fill="#39d353"/><rect class="bar" style="animation-delay:0.08s" x="104.3" y="203.2" width="5.5" height="2.8" rx="1.5" fill="#39d353"/><rect class="bar" style="animation-delay:0.10s" x="113.2" y="199.0" width="5.5" height="7.0" rx="1.5" fill="#39d353"/><rect class="bar" style="animation-delay:0.11s" x="122.2" y="203.0" width="5.5" height="3.0" rx="1.5" fill="#39d353"/><rect class="bar" style="animation-delay:0.12s" x="131.1" y="204.2" width="5.5" height="1.8" rx="1.5" fill="#39d353"/><rect class="bar" style="animation-delay:0.13s" x="140.1" y="204.9" width="5.5" height="1.1" rx="1.5" fill="#39d353"/><rect class="bar" style="animation-delay:0.14s" x="149.0" y="203.8" width="5.5" height="2.2" rx="1.5" fill="#39d353"/><rect class="bar" style="animation-delay:0.16s" x="157.9" y="205.2" width="5.5" height="0.8" rx="1.5" fill="#39d353"/><rect class="bar" style="animation-delay:0.17s" x="166.9" y="205.6" width="5.5" height="0.4" rx="1.5" fill="#39d353"/><rect class="bar" style="animation-delay:0.18s" x="175.8" y="206.0" width="5.5" height="0.0" rx="1.5" fill="#39d353"/><rect class="bar" style="animation-delay:0.19s" x="184.8" y="205.5" width="5.5" height="0.5" rx="1.5" fill="#39d353"/><rect class="bar" style="animation-delay:0.20s" x="193.7" y="203.9" width="5.5" height="2.1" rx="1.5" fill="#39d353"/><rect class="bar" style="animation-delay:0.22s" x="202.6" y="203.8" width="5.5" height="2.2" rx="1.5" fill="#39d353"/><rect class="bar" style="animation-delay:0.23s" x="211.6" y="205.8" width="5.5" height="0.2" rx="1.5" fill="#39d353"/><rect class="bar" style="animation-delay:0.24s" x="220.5" y="205.9" width="5.5" height="0.1" rx="1.5" fill="#39d353"/><rect class="bar" style="animation-delay:0.25s" x="229.5" y="204.4" width="5.5" height="1.6" rx="1.5" fill="#39d353"/><rect class="bar" style="animation-delay:0.26s" x="238.4" y="203.7" width="5.5" height="2.3" rx="1.5" fill="#39d353"/><rect class="bar" style="animation-delay:0.28s" x="247.3" y="203.6" width="5.5" height="2.4" rx="1.5" fill="#39d353"/><rect class="bar" style="animation-delay:0.29s" x="256.3" y="200.2" width="5.5" height="5.8" rx="1.5" fill="#39d353"/><rect class="bar" style="animation-delay:0.30s" x="265.2" y="201.3" width="5.5" height="4.7" rx="1.5" fill="#39d353"/><rect class="bar" style="animation-delay:0.31s" x="274.2" y="202.3" width="5.5" height="3.7" rx="1.5" fill="#39d353"/><rect class="bar" style="animation-delay:0.32s" x="283.1" y="203.6" width="5.5" height="2.4" rx="1.5" fill="#39d353"/><rect class="bar" style="animation-delay:0.34s" x="292.1" y="201.8" width="5.5" height="4.2" rx="1.5" fill="#39d353"/><rect class="bar" style="animation-delay:0.35s" x="301.0" y="202.3" width="5.5" height="3.7" rx="1.5" fill="#39d353"/><rect class="bar" style="animation-delay:0.36s" x="309.9" y="203.0" width="5.5" height="3.0" rx="1.5" fill="#39d353"/><rect class="bar" style="animation-delay:0.37s" x="318.9" y="198.9" width="5.5" height="7.1" rx="1.5" fill="#39d353"/><rect class="bar" style="animation-delay:0.38s" x="327.8" y="192.6" width="5.5" height="13.4" rx="1.5" fill="#39d353"/><rect class="bar" style="animation-delay:0.40s" x="336.8" y="195.3" width="5.5" height="10.7" rx="1.5" fill="#39d353"/><rect class="bar" style="animation-delay:0.41s" x="345.7" y="200.6" width="5.5" height="5.4" rx="1.5" fill="#39d353"/><rect class="bar" style="animation-delay:0.42s" x="354.6" y="199.9" width="5.5" height="6.1" rx="1.5" fill="#39d353"/><rect class="bar" style="animation-delay:0.43s" x="363.6" y="192.2" width="5.5" height="13.8" rx="1.5" fill="#39d353"/><rect class="bar" style="animation-delay:0.44s" x="372.5" y="199.5" width="5.5" height="6.5" rx="1.5" fill="#39d353"/><rect class="bar" style="animation-delay:0.46s" x="381.5" y="197.3" width="5.5" height="8.7" rx="1.5" fill="#39d353"/><rect class="bar" style="animation-delay:0.47s" x="390.4" y="196.9" width="5.5" height="9.1" rx="1.5" fill="#39d353"/><rect class="bar" style="animation-delay:0.48s" x="399.3" y="194.7" width="5.5" height="11.3" rx="1.5" fill="#39d353"/><rect class="bar" style="animation-delay:0.49s" x="408.3" y="196.9" width="5.5" height="9.1" rx="1.5" fill="#39d353"/><rect class="bar" style="animation-delay:0.50s" x="417.2" y="195.3" width="5.5" height="10.7" rx="1.5" fill="#39d353"/><rect class="bar" style="animation-delay:0.52s" x="426.2" y="195.8" width="5.5" height="10.2" rx="1.5" fill="#39d353"/><rect class="bar" style="animation-delay:0.53s" x="435.1" y="201.1" width="5.5" height="4.9" rx="1.5" fill="#39d353"/><rect class="bar" style="animation-delay:0.54s" x="444.1" y="201.4" width="5.5" height="4.6" rx="1.5" fill="#39d353"/><rect class="bar" style="animation-delay:0.55s" x="453.0" y="202.3" width="5.5" height="3.7" rx="1.5" fill="#39d353"/><rect class="bar" style="animation-delay:0.56s" x="461.9" y="203.1" width="5.5" height="2.9" rx="1.5" fill="#39d353"/><rect class="bar" style="animation-delay:0.58s" x="470.9" y="197.9" width="5.5" height="8.1" rx="1.5" fill="#39d353"/><rect class="bar" style="animation-delay:0.59s" x="479.8" y="196.2" width="5.5" height="9.8" rx="1.5" fill="#39d353"/><rect class="bar" style="animation-delay:0.60s" x="488.8" y="191.9" width="5.5" height="14.1" rx="1.5" fill="#39d353"/><rect class="bar" style="animation-delay:0.61s" x="497.7" y="193.4" width="5.5" height="12.6" rx="1.5" fill="#39d353"/><rect class="bar" style="animation-delay:0.62s" x="506.6" y="189.6" width="5.5" height="16.4" rx="1.5" fill="#39d353"/><rect class="bar" style="animation-delay:0.64s" x="515.6" y="190.5" width="5.5" height="15.5" rx="1.5" fill="#39d353"/><rect class="bar" style="animation-delay:0.65s" x="524.5" y="192.7" width="5.5" height="13.3" rx="1.5" fill="#39d353"/><rect class="bar" style="animation-delay:0.66s" x="533.5" y="196.4" width="5.5" height="9.6" rx="1.5" fill="#39d353"/><rect class="bar" style="animation-delay:0.67s" x="542.4" y="191.0" width="5.5" height="15.0" rx="1.5" fill="#39d353"/><rect class="bar" style="animation-delay:0.68s" x="551.3" y="194.5" width="5.5" height="11.5" rx="1.5" fill="#39d353"/><rect class="bar" style="animation-delay:0.70s" x="560.3" y="190.3" width="5.5" height="15.7" rx="1.5" fill="#39d353"/><rect class="bar" style="animation-delay:0.71s" x="569.2" y="195.9" width="5.5" height="10.1" rx="1.5" fill="#39d353"/><rect class="bar" style="animation-delay:0.72s" x="578.2" y="196.3" width="5.5" height="9.7" rx="1.5" fill="#39d353"/><rect class="bar" style="animation-delay:0.73s" x="587.1" y="193.3" width="5.5" height="12.7" rx="1.5" fill="#39d353"/><rect class="bar" style="animation-delay:0.74s" x="596.1" y="194.0" width="5.5" height="12.0" rx="1.5" fill="#39d353"/><rect class="bar" style="animation-delay:0.76s" x="605.0" y="200.1" width="5.5" height="5.9" rx="1.5" fill="#39d353"/><rect class="bar" style="animation-delay:0.77s" x="613.9" y="202.1" width="5.5" height="3.9" rx="1.5" fill="#39d353"/><rect class="bar" style="animation-delay:0.78s" x="622.9" y="197.4" width="5.5" height="8.6" rx="1.5" fill="#39d353"/><rect class="bar" style="animation-delay:0.79s" x="631.8" y="196.4" width="5.5" height="9.6" rx="1.5" fill="#39d353"/><rect class="bar" style="animation-delay:0.80s" x="640.8" y="191.0" width="5.5" height="15.0" rx="1.5" fill="#39d353"/><rect class="bar" style="animation-delay:0.82s" x="649.7" y="191.4" width="5.5" height="14.6" rx="1.5" fill="#39d353"/><rect class="bar" style="animation-delay:0.83s" x="658.6" y="187.4" width="5.5" height="18.6" rx="1.5" fill="#39d353"/><rect class="bar" style="animation-delay:0.84s" x="667.6" y="194.1" width="5.5" height="11.9" rx="1.5" fill="#39d353"/><rect class="bar" style="animation-delay:0.85s" x="676.5" y="201.2" width="5.5" height="4.8" rx="1.5" fill="#39d353"/><rect class="bar" style="animation-delay:0.86s" x="685.5" y="192.5" width="5.5" height="13.5" rx="1.5" fill="#39d353"/><rect class="bar" style="animation-delay:0.88s" x="694.4" y="192.7" width="5.5" height="13.3" rx="1.5" fill="#39d353"/><rect class="bar" style="animation-delay:0.89s" x="703.3" y="197.0" width="5.5" height="9.0" rx="1.5" fill="#39d353"/><rect class="bar" style="animation-delay:0.90s" x="712.3" y="198.0" width="5.5" height="8.0" rx="1.5" fill="#39d353"/><rect class="bar" style="animation-delay:0.91s" x="721.2" y="201.4" width="5.5" height="4.6" rx="1.5" fill="#39d353"/><rect class="bar" style="animation-delay:0.92s" x="730.2" y="199.0" width="5.5" height="7.0" rx="1.5" fill="#39d353"/><rect class="bar" style="animation-delay:0.94s" x="739.1" y="199.4" width="5.5" height="6.6" rx="1.5" fill="#39d353"/><rect class="bar" style="animation-delay:0.95s" x="748.1" y="200.4" width="5.5" height="5.6" rx="1.5" fill="#39d353"/><rect class="bar" style="animation-delay:0.96s" x="757.0" y="195.8" width="5.5" height="10.2" rx="1.5" fill="#39d353"/><rect class="bar" style="animation-delay:0.97s" x="765.9" y="183.8" width="5.5" height="22.2" rx="1.5" fill="#39d353"/><rect class="bar" style="animation-delay:0.98s" x="774.9" y="181.5" width="5.5" height="24.5" rx="1.5" fill="#39d353"/><rect class="bar" style="animation-delay:1.00s" x="783.8" y="181.7" width="5.5" height="24.3" rx="1.5" fill="#39d353"/><rect class="bar" style="animation-delay:1.00s" x="792.8" y="114.0" width="5.5" height="92.0" rx="1.5" fill="#39d353"/><polyline class="cum" pathLength="1" points="44.5,206.0 53.4,206.0 62.4,205.9 71.3,205.9 80.2,205.9 89.2,205.9 98.1,205.9 107.1,205.5 116.0,204.7 124.9,204.3 133.9,204.1 142.8,204.0 151.8,203.7 160.7,203.6 169.6,203.6 178.6,203.6 187.5,203.5 196.5,203.3 205.4,203.0 214.4,203.0 223.3,203.0 232.2,202.8 241.2,202.5 250.1,202.2 259.1,201.6 268.0,201.0 276.9,200.6 285.9,200.3 294.8,199.8 303.8,199.3 312.7,199.0 321.6,198.1 330.6,196.5 339.5,195.3 348.5,194.6 357.4,193.9 366.4,192.3 375.3,191.5 384.2,190.5 393.2,189.4 402.1,188.1 411.1,187.0 420.0,185.7 428.9,184.5 437.9,183.9 446.8,183.4 455.8,183.0 464.7,182.6 473.6,181.7 482.6,180.5 491.5,178.8 500.5,177.3 509.4,175.4 518.4,173.5 527.3,172.0 536.2,170.8 545.2,169.0 554.1,167.7 563.1,165.8 572.0,164.6 580.9,163.5 589.9,162.0 598.8,160.5 607.8,159.8 616.7,159.4 625.6,158.4 634.6,157.2 643.5,155.5 652.5,153.7 661.4,151.5 670.4,150.1 679.3,149.5 688.2,147.9 697.2,146.4 706.1,145.3 715.1,144.4 724.0,143.8 732.9,143.0 741.9,142.2 750.8,141.5 759.8,140.3 768.7,137.7 777.6,134.8 786.6,131.9 795.5,121.0" fill="none" stroke="#58a6ff" stroke-width="2" stroke-linejoin="round"/><g class="end"><circle cx="795.5" cy="121.0" r="3" fill="#58a6ff"/>
    <text x="789.5" y="114.0" fill="#58a6ff" font-size="11" font-weight="600" text-anchor="end">32k</text></g><text x="98.1" y="219" fill="#8b949e" font-size="9" text-anchor="middle">2020</text><text x="205.4" y="219" fill="#8b949e" font-size="9" text-anchor="middle">2021</text><text x="312.7" y="219" fill="#8b949e" font-size="9" text-anchor="middle">2022</text><text x="420.0" y="219" fill="#8b949e" font-size="9" text-anchor="middle">2023</text><text x="527.3" y="219" fill="#8b949e" font-size="9" text-anchor="middle">2024</text><text x="634.6" y="219" fill="#8b949e" font-size="9" text-anchor="middle">2025</text><text x="741.9" y="219" fill="#8b949e" font-size="9" text-anchor="middle">2026</text>
  </g>
  <g>
    <text x="40" y="241" fill="#c9d1d9" font-size="13" font-weight="600">Yearly</text>
    <text x="800" y="241" fill="#8b949e" font-size="11" text-anchor="end">期間別 ▮   累計 ―</text>
    <line x1="40" y1="362" x2="800" y2="362" stroke="#21262d"/>
    <rect class="bar" style="animation-delay:0.00s" x="74.5" y="361.7" width="26.0" height="0.3" rx="1.5" fill="#39d353"/><rect class="bar" style="animation-delay:0.01s" x="169.5" y="350.9" width="26.0" height="11.1" rx="1.5" fill="#39d353"/><rect class="bar" style="animation-delay:0.02s" x="264.5" y="345.5" width="26.0" height="16.5" rx="1.5" fill="#39d353"/><rect class="bar" style="animation-delay:0.04s" x="359.5" y="310.3" width="26.0" height="51.7" rx="1.5" fill="#39d353"/><rect class="bar" style="animation-delay:0.05s" x="454.5" y="305.7" width="26.0" height="56.3" rx="1.5" fill="#39d353"/><rect class="bar" style="animation-delay:0.06s" x="549.5" y="298.5" width="26.0" height="63.5" rx="1.5" fill="#39d353"/><rect class="bar" style="animation-delay:0.07s" x="644.5" y="297.6" width="26.0" height="64.4" rx="1.5" fill="#39d353"/><rect class="bar" style="animation-delay:0.08s" x="739.5" y="270.0" width="26.0" height="92.0" rx="1.5" fill="#39d353"/><polyline class="cum" pathLength="1" points="87.5,361.9 182.5,359.3 277.5,355.3 372.5,343.0 467.5,329.5 562.5,314.4 657.5,299.0 752.5,277.0" fill="none" stroke="#58a6ff" stroke-width="2" stroke-linejoin="round"/><g class="end"><circle cx="752.5" cy="277.0" r="3" fill="#58a6ff"/>
    <text x="746.5" y="270.0" fill="#58a6ff" font-size="11" font-weight="600" text-anchor="end">32k</text></g><text x="87.5" y="375" fill="#8b949e" font-size="9" text-anchor="middle">2019</text><text x="182.5" y="375" fill="#8b949e" font-size="9" text-anchor="middle">2020</text><text x="277.5" y="375" fill="#8b949e" font-size="9" text-anchor="middle">2021</text><text x="372.5" y="375" fill="#8b949e" font-size="9" text-anchor="middle">2022</text><text x="467.5" y="375" fill="#8b949e" font-size="9" text-anchor="middle">2023</text><text x="562.5" y="375" fill="#8b949e" font-size="9" text-anchor="middle">2024</text><text x="657.5" y="375" fill="#8b949e" font-size="9" text-anchor="middle">2025</text><text x="752.5" y="375" fill="#8b949e" font-size="9" text-anchor="middle">2026</text>
  </g>
</svg>