<svg width="840" height="396" viewBox="0 0 840 396" fill="none" xmlns="http://www.w3.org/2000/svg" font-family="Segoe UI, Ubuntu, sans-serif">
  <style>
    /* auto-play on render — GitHub's img-embedded SVG runs CSS animation but not :hover/JS.
       base state = final, so if animation is unsupported the finished card still shows. */
    .bar{transform-box:fill-box;transform-origin:bottom;animation:grow .9s ease-out backwards}
    .cum{stroke-dasharray:1;animation:draw 1.4s ease-out .25s backwards}
    .end{animation:fade .6s ease-out 1.25s backwards}
    @keyframes grow{from{transform:scaleY(0)}}
    @keyframes draw{from{stroke-dashoffset:1}to{stroke-dashoffset:0}}
    @keyframes fade{from{opacity:0}}
    @media (prefers-reduced-motion:reduce){.bar,.cum,.end{animation:none}}
  </style>
  <rect x="0.5" y="0.5" width="839" height="395" rx="10" fill="#0d1117" stroke="#30363d"/>
  <text x="40" y="40" fill="#58a6ff" font-size="18" font-weight="700">fujiya228 · GitHub Activity</text>
  <text x="800" y="40" fill="#8b949e" font-size="12" text-anchor="end">all time: 34.4k contributions since 2019</text>
  <g>
    <text x="40" y="85" fill="#c9d1d9" font-size="13" font-weight="600">Monthly · all time</text>
    <text x="800" y="85" fill="#8b949e" font-size="11" text-anchor="end">期間別 ▮   累計 ―</text>
    <line x1="40" y1="206" x2="800" y2="206" stroke="#21262d"/>
    <rect class="bar" style="animation-delay:0.00s" x="41.7" y="206.0" width="5.5" height="0.0" rx="1.5" fill="#39d353"/><rect class="bar" style="animation-delay:0.01s" x="50.5" y="205.9" width="5.5" height="0.1" rx="1.5" fill="#39d353"/><rect class="bar" style="animation-delay:0.02s" x="59.4" y="205.8" width="5.5" height="0.2" rx="1.5" fill="#39d353"/><rect class="bar" style="animation-delay:0.04s" x="68.2" y="206.0" width="5.5" height="0.0" rx="1.5" fill="#39d353"/><rect class="bar" style="animation-delay:0.05s" x="77.0" y="206.0" width="5.5" height="0.0" rx="1.5" fill="#39d353"/><rect class="bar" style="animation-delay:0.06s" x="85.9" y="205.8" width="5.5" height="0.2" rx="1.5" fill="#39d353"/><rect class="bar" style="animation-delay:0.07s" x="94.7" y="205.6" width="5.5" height="0.4" rx="1.5" fill="#39d353"/><rect class="bar" style="animation-delay:0.08s" x="103.5" y="204.1" width="5.5" height="1.9" rx="1.5" fill="#39d353"/><rect class="bar" style="animation-delay:0.10s" x="112.4" y="201.2" width="5.5" height="4.8" rx="1.5" fill="#39d353"/><rect class="bar" style="animation-delay:0.11s" x="121.2" y="203.9" width="5.5" height="2.1" rx="1.5" fill="#39d353"/><rect class="bar" style="animation-delay:0.12s" x="130.1" y="204.8" width="5.5" height="1.2" rx="1.5" fill="#39d353"/><rect class="bar" style="animation-delay:0.13s" x="138.9" y="205.3" width="5.5" height="0.7" rx="1.5" fill="#39d353"/><rect class="bar" style="animation-delay:0.14s" x="147.7" y="204.5" width="5.5" height="1.5" rx="1.5" fill="#39d353"/><rect class="bar" style="animation-delay:0.16s" x="156.6" y="205.4" width="5.5" height="0.6" rx="1.5" fill="#39d353"/><rect class="bar" style="animation-delay:0.17s" x="165.4" y="205.7" width="5.5" height="0.3" rx="1.5" fill="#39d353"/><rect class="bar" style="animation-delay:0.18s" x="174.2" y="206.0" width="5.5" height="0.0" rx="1.5" fill="#39d353"/><rect class="bar" style="animation-delay:0.19s" x="183.1" y="205.7" width="5.5" height="0.3" rx="1.5" fill="#39d353"/><rect class="bar" style="animation-delay:0.20s" x="191.9" y="204.6" width="5.5" height="1.4" rx="1.5" fill="#39d353"/><rect class="bar" style="animation-delay:0.22s" x="200.7" y="204.5" width="5.5" height="1.5" rx="1.5" fill="#39d353"/><rect class="bar" style="animation-delay:0.23s" x="209.6" y="205.9" width="5.5" height="0.1" rx="1.5" fill="#39d353"/><rect class="bar" style="animation-delay:0.24s" x="218.4" y="205.9" width="5.5" height="0.1" rx="1.5" fill="#39d353"/><rect class="bar" style="animation-delay:0.25s" x="227.3" y="204.9" width="5.5" height="1.1" rx="1.5" fill="#39d353"/><rect class="bar" style="animation-delay:0.26s" x="236.1" y="204.5" width="5.5" height="1.5" rx="1.5" fill="#39d353"/><rect class="bar" style="animation-delay:0.28s" x="244.9" y="204.3" width="5.5" height="1.7" rx="1.5" fill="#39d353"/><rect class="bar" style="animation-delay:0.29s" x="253.8" y="202.1" width="5.5" height="3.9" rx="1.5" fill="#39d353"/><rect class="bar" style="animation-delay:0.30s" x="262.6" y="202.8" width="5.5" height="3.2" rx="1.5" fill="#39d353"/><rect class="bar" style="animation-delay:0.31s" x="271.4" y="203.5" width="5.5" height="2.5" rx="1.5" fill="#39d353"/><rect class="bar" style="animation-delay:0.32s" x="280.3" y="204.3" width="5.5" height="1.7" rx="1.5" fill="#39d353"/><rect class="bar" style="animation-delay:0.34s" x="289.1" y="203.1" width="5.5" height="2.9" rx="1.5" fill="#39d353"/><rect class="bar" style="animation-delay:0.35s" x="298.0" y="203.5" width="5.5" height="2.5" rx="1.5" fill="#39d353"/><rect class="bar" style="animation-delay:0.36s" x="306.8" y="204.0" width="5.5" height="2.0" rx="1.5" fill="#39d353"/><rect class="bar" style="animation-delay:0.37s" x="315.6" y="201.1" width="5.5" height="4.9" rx="1.5" fill="#39d353"/><rect class="bar" style="animation-delay:0.38s" x="324.5" y="196.9" width="5.5" height="9.1" rx="1.5" fill="#39d353"/><rect class="bar" style="animation-delay:0.40s" x="333.3" y="198.7" width="5.5" height="7.3" rx="1.5" fill="#39d353"/><rect class="bar" style="animation-delay:0.41s" x="342.1" y="202.3" width="5.5" height="3.7" rx="1.5" fill="#39d353"/><rect class="bar" style="animation-delay:0.42s" x="351.0" y="201.8" width="5.5" height="4.2" rx="1.5" fill="#39d353"/><rect class="bar" style="animation-delay:0.43s" x="359.8" y="196.6" width="5.5" height="9.4" rx="1.5" fill="#39d353"/><rect class="bar" style="animation-delay:0.44s" x="368.7" y="201.5" width="5.5" height="4.5" rx="1.5" fill="#39d353"/><rect class="bar" style="animation-delay:0.46s" x="377.5" y="200.1" width="5.5" height="5.9" rx="1.5" fill="#39d353"/><rect class="bar" style="animation-delay:0.47s" x="386.3" y="199.8" width="5.5" height="6.2" rx="1.5" fill="#39d353"/><rect class="bar" style="animation-delay:0.48s" x="395.2" y="198.3" width="5.5" height="7.7" rx="1.5" fill="#39d353"/><rect class="bar" style="animation-delay:0.49s" x="404.0" y="199.8" width="5.5" height="6.2" rx="1.5" fill="#39d353"/><rect class="bar" style="animation-delay:0.50s" x="412.8" y="198.7" width="5.5" height="7.3" rx="1.5" fill="#39d353"/><rect class="bar" style="animation-delay:0.52s" x="421.7" y="199.1" width="5.5" height="6.9" rx="1.5" fill="#39d353"/><rect class="bar" style="animation-delay:0.53s" x="430.5" y="202.6" width="5.5" height="3.4" rx="1.5" fill="#39d353"/><rect class="bar" style="animation-delay:0.54s" x="439.4" y="202.9" width="5.5" height="3.1" rx="1.5" fill="#39d353"/><rect class="bar" style="animation-delay:0.55s" x="448.2" y="203.5" width="5.5" height="2.5" rx="1.5" fill="#39d353"/><rect class="bar" style="animation-delay:0.56s" x="457.0" y="204.0" width="5.5" height="2.0" rx="1.5" fill="#39d353"/><rect class="bar" style="animation-delay:0.58s" x="465.9" y="200.5" width="5.5" height="5.5" rx="1.5" fill="#39d353"/><rect class="bar" style="animation-delay:0.59s" x="474.7" y="199.3" width="5.5" height="6.7" rx="1.5" fill="#39d353"/><rect class="bar" style="animation-delay:0.60s" x="483.5" y="196.4" width="5.5" height="9.6" rx="1.5" fill="#39d353"/><rect class="bar" style="animation-delay:0.61s" x="492.4" y="197.4" width="5.5" height="8.6" rx="1.5" fill="#39d353"/><rect class="bar" style="animation-delay:0.62s" x="501.2" y="194.8" width="5.5" height="11.2" rx="1.5" fill="#39d353"/><rect class="bar" style="animation-delay:0.64s" x="510.1" y="195.4" width="5.5" height="10.6" rx="1.5" fill="#39d353"/><rect class="bar" style="animation-delay:0.65s" x="518.9" y="196.9" width="5.5" height="9.1" rx="1.5" fill="#39d353"/><rect class="bar" style="animation-delay:0.66s" x="527.7" y="199.5" width="5.5" height="6.5" rx="1.5" fill="#39d353"/><rect class="bar" style="animation-delay:0.67s" x="536.6" y="195.8" width="5.5" height="10.2" rx="1.5" fill="#39d353"/><rect class="bar" style="animation-delay:0.68s" x="545.4" y="198.1" width="5.5" height="7.9" rx="1.5" fill="#39d353"/><rect class="bar" style="animation-delay:0.70s" x="554.2" y="195.3" width="5.5" height="10.7" rx="1.5" fill="#39d353"/><rect class="bar" style="animation-delay:0.71s" x="563.1" y="199.1" width="5.5" height="6.9" rx="1.5" fill="#39d353"/><rect class="bar" style="animation-delay:0.72s" x="571.9" y="199.4" width="5.5" height="6.6" rx="1.5" fill="#39d353"/><rect class="bar" style="animation-delay:0.73s" x="580.7" y="197.3" width="5.5" height="8.7" rx="1.5" fill="#39d353"/><rect class="bar" style="animation-delay:0.74s" x="589.6" y="197.8" width="5.5" height="8.2" rx="1.5" fill="#39d353"/><rect class="bar" style="animation-delay:0.76s" x="598.4" y="202.0" width="5.5" height="4.0" rx="1.5" fill="#39d353"/><rect class="bar" style="animation-delay:0.77s" x="607.3" y="203.4" width="5.5" height="2.6" rx="1.5" fill="#39d353"/><rect class="bar" style="animation-delay:0.78s" x="616.1" y="200.2" width="5.5" height="5.8" rx="1.5" fill="#39d353"/><rect class="bar" style="animation-delay:0.79s" x="624.9" y="199.4" width="5.5" height="6.6" rx="1.5" fill="#39d353"/><rect class="bar" style="animation-delay:0.80s" x="633.8" y="195.8" width="5.5" height="10.2" rx="1.5" fill="#39d353"/><rect class="bar" style="animation-delay:0.82s" x="642.6" y="196.0" width="5.5" height="10.0" rx="1.5" fill="#39d353"/><rect class="bar" style="animation-delay:0.83s" x="651.4" y="193.3" width="5.5" height="12.7" rx="1.5" fill="#39d353"/><rect class="bar" style="animation-delay:0.84s" x="660.3" y="197.9" width="5.5" height="8.1" rx="1.5" fill="#39d353"/><rect class="bar" style="animation-delay:0.85s" x="669.1" y="202.7" width="5.5" height="3.3" rx="1.5" fill="#39d353"/><rect class="bar" style="animation-delay:0.86s" x="678.0" y="196.8" width="5.5" height="9.2" rx="1.5" fill="#39d353"/><rect class="bar" style="animation-delay:0.88s" x="686.8" y="196.9" width="5.5" height="9.1" rx="1.5" fill="#39d353"/><rect class="bar" style="animation-delay:0.89s" x="695.6" y="199.8" width="5.5" height="6.2" rx="1.5" fill="#39d353"/><rect class="bar" style="animation-delay:0.90s" x="704.5" y="200.6" width="5.5" height="5.4" rx="1.5" fill="#39d353"/><rect class="bar" style="animation-delay:0.91s" x="713.3" y="202.9" width="5.5" height="3.1" rx="1.5" fill="#39d353"/><rect class="bar" style="animation-delay:0.92s" x="722.1" y="201.2" width="5.5" height="4.8" rx="1.5" fill="#39d353"/><rect class="bar" style="animation-delay:0.94s" x="731.0" y="201.5" width="5.5" height="4.5" rx="1.5" fill="#39d353"/><rect class="bar" style="animation-delay:0.95s" x="739.8" y="202.1" width="5.5" height="3.9" rx="1.5" fill="#39d353"/><rect class="bar" style="animation-delay:0.96s" x="748.7" y="199.0" width="5.5" height="7.0" rx="1.5" fill="#39d353"/><rect class="bar" style="animation-delay:0.97s" x="757.5" y="190.9" width="5.5" height="15.1" rx="1.5" fill="#39d353"/><rect class="bar" style="animation-delay:0.98s" x="766.3" y="189.3" width="5.5" height="16.7" rx="1.5" fill="#39d353"/><rect class="bar" style="animation-delay:1.00s" x="775.2" y="189.4" width="5.5" height="16.6" rx="1.5" fill="#39d353"/><rect class="bar" style="animation-delay:1.00s" x="784.0" y="114.0" width="5.5" height="92.0" rx="1.5" fill="#39d353"/><rect class="bar" style="animation-delay:1.00s" x="792.8" y="199.5" width="5.5" height="6.5" rx="1.5" fill="#39d353"/><polyline class="cum" pathLength="1" points="44.4,206.0 53.3,206.0 62.1,206.0 70.9,206.0 79.8,206.0 88.6,205.9 97.4,205.9 106.3,205.6 115.1,204.8 124.0,204.4 132.8,204.3 141.6,204.1 150.5,203.9 159.3,203.8 168.1,203.8 177.0,203.8 185.8,203.7 194.7,203.5 203.5,203.2 212.3,203.2 221.2,203.2 230.0,203.0 238.8,202.8 247.7,202.5 256.5,201.9 265.3,201.3 274.2,200.9 283.0,200.7 291.9,200.2 300.7,199.8 309.5,199.5 318.4,198.7 327.2,197.2 336.0,196.0 344.9,195.4 353.7,194.7 362.6,193.2 371.4,192.5 380.2,191.5 389.1,190.5 397.9,189.3 406.7,188.3 415.6,187.1 424.4,186.0 433.3,185.4 442.1,184.9 450.9,184.5 459.8,184.2 468.6,183.3 477.4,182.2 486.3,180.7 495.1,179.3 504.0,177.5 512.8,175.7 521.6,174.3 530.5,173.2 539.3,171.6 548.1,170.3 557.0,168.6 565.8,167.4 574.7,166.4 583.5,165.0 592.3,163.6 601.2,163.0 610.0,162.6 618.8,161.6 627.7,160.6 636.5,158.9 645.3,157.3 654.2,155.2 663.0,153.9 671.9,153.4 680.7,151.9 689.5,150.4 698.4,149.4 707.2,148.5 716.0,148.0 724.9,147.3 733.7,146.5 742.6,145.9 751.4,144.8 760.2,142.3 769.1,139.6 777.9,136.9 786.7,122.1 795.6,121.0" fill="none" stroke="#58a6ff" stroke-width="2" stroke-linejoin="round"/><g class="end"><circle cx="795.6" cy="121.0" r="3" fill="#58a6ff"/>
    <text x="789.6" y="114.0" fill="#58a6ff" font-size="11" font-weight="600" text-anchor="end">34.4k</text></g><text x="97.4" y="219" fill="#8b949e" font-size="9" text-anchor="middle">2020</text><text x="203.5" y="219" fill="#8b949e" font-size="9" text-anchor="middle">2021</text><text x="309.5" y="219" fill="#8b949e" font-size="9" text-anchor="middle">2022</text><text x="415.6" y="219" fill="#8b949e" font-size="9" text-anchor="middle">2023</text><text x="521.6" y="219" fill="#8b949e" font-size="9" text-anchor="middle">2024</text><text x="627.7" y="219" fill="#8b949e" font-size="9" text-anchor="middle">2025</text><text x="733.7" y="219" fill="#8b949e" font-size="9" text-anchor="middle">2026</text>
  </g>
  <g>
    <text x="40" y="241" fill="#c9d1d9" font-size="13" font-weight="600">Yearly</text>
    <text x="800" y="241" fill="#8b949e" font-size="11" text-anchor="end">期間別 ▮   累計 ―</text>
    <line x1="40" y1="362" x2="800" y2="362" stroke="#21262d"/>
    <rect class="bar" style="animation-delay:0.00s" x="74.5" y="361.7" width="26.0" height="0.3" rx="1.5" fill="#39d353"/><rect class="bar" style="animation-delay:0.01s" x="169.5" y="353.4" width="26.0" height="8.6" rx="1.5" fill="#39d353"/><rect class="bar" style="animation-delay:0.02s" x="264.5" y="349.1" width="26.0" height="12.9" rx="1.5" fill="#39d353"/><rect class="bar" style="animation-delay:0.04s" x="359.5" y="321.7" width="26.0" height="40.3" rx="1.5" fill="#39d353"/><rect class="bar" style="animation-delay:0.05s" x="454.5" y="318.1" width="26.0" height="43.9" rx="1.5" fill="#39d353"/><rect class="bar" style="animation-delay:0.06s" x="549.5" y="312.5" width="26.0" height="49.5" rx="1.5" fill="#39d353"/><rect class="bar" style="animation-delay:0.07s" x="644.5" y="311.7" width="26.0" height="50.3" rx="1.5" fill="#39d353"/><rect class="bar" style="animation-delay:0.08s" x="739.5" y="270.0" width="26.0" height="92.0" rx="1.5" fill="#39d353"/><polyline class="cum" pathLength="1" points="87.5,361.9 182.5,359.5 277.5,355.8 372.5,344.3 467.5,331.7 562.5,317.6 657.5,303.3 752.5,277.0" fill="none" stroke="#58a6ff" stroke-width="2" stroke-linejoin="round"/><g class="end"><circle cx="752.5" cy="277.0" r="3" fill="#58a6ff"/>
    <text x="746.5" y="270.0" fill="#58a6ff" font-size="11" font-weight="600" text-anchor="end">34.4k</text></g><text x="87.5" y="375" fill="#8b949e" font-size="9" text-anchor="middle">2019</text><text x="182.5" y="375" fill="#8b949e" font-size="9" text-anchor="middle">2020</text><text x="277.5" y="375" fill="#8b949e" font-size="9" text-anchor="middle">2021</text><text x="372.5" y="375" fill="#8b949e" font-size="9" text-anchor="middle">2022</text><text x="467.5" y="375" fill="#8b949e" font-size="9" text-anchor="middle">2023</text><text x="562.5" y="375" fill="#8b949e" font-size="9" text-anchor="middle">2024</text><text x="657.5" y="375" fill="#8b949e" font-size="9" text-anchor="middle">2025</text><text x="752.5" y="375" fill="#8b949e" font-size="9" text-anchor="middle">2026</text>
  </g>
</svg>