<svg width="840" height="396" viewBox="0 0 840 396" fill="none" xmlns="http://www.w3.org/2000/svg" font-family="Segoe UI, Ubuntu, sans-serif">
  <style>
    /* auto-play on render — GitHub's img-embedded SVG runs CSS animation but not :hover/JS.
       base state = final, so if animation is unsupported the finished card still shows. */
    .bar{transform-box:fill-box;transform-origin:bottom;animation:grow .9s ease-out backwards}
    .cum{stroke-dasharray:1;animation:draw 1.4s ease-out .25s backwards}
    .end{animation:fade .6s ease-out 1.25s backwards}
    @keyframes grow{from{transform:scaleY(0)}}
    @keyframes draw{from{stroke-dashoffset:1}to{stroke-dashoffset:0}}
    @keyframes fade{from{opacity:0}}
    @media (prefers-reduced-motion:reduce){.bar,.cum,.end{animation:none}}
  </style>
  <rect x="0.5" y="0.5" width="839" height="395" rx="10" fill="#0d1117" stroke="#30363d"/>
  <text x="40" y="40" fill="#58a6ff" font-size="18" font-weight="700">fujiya228 · GitHub Activity</text>
  <text x="800" y="40" fill="#8b949e" font-size="12" text-anchor="end">all time: 32.8k contributions since 2019</text>
  <g>
    <text x="40" y="85" fill="#c9d1d9" font-size="13" font-weight="600">Monthly · all time</text>
    <text x="800" y="85" fill="#8b949e" font-size="11" text-anchor="end">期間別 ▮   累計 ―</text>
    <line x1="40" y1="206" x2="800" y2="206" stroke="#21262d"/>
    <rect class="bar" style="animation-delay:0.00s" x="41.7" y="206.0" width="5.5" height="0.0" rx="1.5" fill="#39d353"/><rect class="bar" style="animation-delay:0.01s" x="50.6" y="205.9" width="5.5" height="0.1" rx="1.5" fill="#39d353"/><rect class="bar" style="animation-delay:0.02s" x="59.6" y="205.8" width="5.5" height="0.2" rx="1.5" fill="#39d353"/><rect class="bar" style="animation-delay:0.04s" x="68.5" y="206.0" width="5.5" height="0.0" rx="1.5" fill="#39d353"/><rect class="bar" style="animation-delay:0.05s" x="77.5" y="206.0" width="5.5" height="0.0" rx="1.5" fill="#39d353"/><rect class="bar" style="animation-delay:0.06s" x="86.4" y="205.8" width="5.5" height="0.2" rx="1.5" fill="#39d353"/><rect class="bar" style="animation-delay:0.07s" x="95.3" y="205.6" width="5.5" height="0.4" rx="1.5" fill="#39d353"/><rect class="bar" style="animation-delay:0.08s" x="104.3" y="203.6" width="5.5" height="2.4" rx="1.5" fill="#39d353"/><rect class="bar" style="animation-delay:0.10s" x="113.2" y="200.2" width="5.5" height="5.8" rx="1.5" fill="#39d353"/><rect class="bar" style="animation-delay:0.11s" x="122.2" y="203.5" width="5.5" height="2.5" rx="1.5" fill="#39d353"/><rect class="bar" style="animation-delay:0.12s" x="131.1" y="204.5" width="5.5" height="1.5" rx="1.5" fill="#39d353"/><rect class="bar" style="animation-delay:0.13s" x="140.1" y="205.1" width="5.5" height="0.9" rx="1.5" fill="#39d353"/><rect class="bar" style="animation-delay:0.14s" x="149.0" y="204.2" width="5.5" height="1.8" rx="1.5" fill="#39d353"/><rect class="bar" style="animation-delay:0.16s" x="157.9" y="205.3" width="5.5" height="0.7" rx="1.5" fill="#39d353"/><rect class="bar" style="animation-delay:0.17s" x="166.9" y="205.6" width="5.5" height="0.4" rx="1.5" fill="#39d353"/><rect class="bar" style="animation-delay:0.18s" x="175.8" y="206.0" width="5.5" height="0.0" rx="1.5" fill="#39d353"/><rect class="bar" style="animation-delay:0.19s" x="184.8" y="205.6" width="5.5" height="0.4" rx="1.5" fill="#39d353"/><rect class="bar" style="animation-delay:0.20s" x="193.7" y="204.2" width="5.5" height="1.8" rx="1.5" fill="#39d353"/><rect class="bar" style="animation-delay:0.22s" x="202.6" y="204.1" width="5.5" height="1.9" rx="1.5" fill="#39d353"/><rect class="bar" style="animation-delay:0.23s" x="211.6" y="205.8" width="5.5" height="0.2" rx="1.5" fill="#39d353"/><rect class="bar" style="animation-delay:0.24s" x="220.5" y="205.9" width="5.5" height="0.1" rx="1.5" fill="#39d353"/><rect class="bar" style="animation-delay:0.25s" x="229.5" y="204.7" width="5.5" height="1.3" rx="1.5" fill="#39d353"/><rect class="bar" style="animation-delay:0.26s" x="238.4" y="204.1" width="5.5" height="1.9" rx="1.5" fill="#39d353"/><rect class="bar" style="animation-delay:0.28s" x="247.3" y="204.0" width="5.5" height="2.0" rx="1.5" fill="#39d353"/><rect class="bar" style="animation-delay:0.29s" x="256.3" y="201.2" width="5.5" height="4.8" rx="1.5" fill="#39d353"/><rect class="bar" style="animation-delay:0.30s" x="265.2" y="202.1" width="5.5" height="3.9" rx="1.5" fill="#39d353"/><rect class="bar" style="animation-delay:0.31s" x="274.2" y="202.9" width="5.5" height="3.1" rx="1.5" fill="#39d353"/><rect class="bar" style="animation-delay:0.32s" x="283.1" y="204.0" width="5.5" height="2.0" rx="1.5" fill="#39d353"/><rect class="bar" style="animation-delay:0.34s" x="292.1" y="202.5" width="5.5" height="3.5" rx="1.5" fill="#39d353"/><rect class="bar" style="animation-delay:0.35s" x="301.0" y="202.9" width="5.5" height="3.1" rx="1.5" fill="#39d353"/><rect class="bar" style="animation-delay:0.36s" x="309.9" y="203.5" width="5.5" height="2.5" rx="1.5" fill="#39d353"/><rect class="bar" style="animation-delay:0.37s" x="318.9" y="200.0" width="5.5" height="6.0" rx="1.5" fill="#39d353"/><rect class="bar" style="animation-delay:0.38s" x="327.8" y="194.8" width="5.5" height="11.2" rx="1.5" fill="#39d353"/><rect class="bar" style="animation-delay:0.40s" x="336.8" y="197.0" width="5.5" height="9.0" rx="1.5" fill="#39d353"/><rect class="bar" style="animation-delay:0.41s" x="345.7" y="201.5" width="5.5" height="4.5" rx="1.5" fill="#39d353"/><rect class="bar" style="animation-delay:0.42s" x="354.6" y="200.9" width="5.5" height="5.1" rx="1.5" fill="#39d353"/><rect class="bar" style="animation-delay:0.43s" x="363.6" y="194.5" width="5.5" height="11.5" rx="1.5" fill="#39d353"/><rect class="bar" style="animation-delay:0.44s" x="372.5" y="200.5" width="5.5" height="5.5" rx="1.5" fill="#39d353"/><rect class="bar" style="animation-delay:0.46s" x="381.5" y="198.8" width="5.5" height="7.2" rx="1.5" fill="#39d353"/><rect class="bar" style="animation-delay:0.47s" x="390.4" y="198.4" width="5.5" height="7.6" rx="1.5" fill="#39d353"/><rect class="bar" style="animation-delay:0.48s" x="399.3" y="196.6" width="5.5" height="9.4" rx="1.5" fill="#39d353"/><rect class="bar" style="animation-delay:0.49s" x="408.3" y="198.4" width="5.5" height="7.6" rx="1.5" fill="#39d353"/><rect class="bar" style="animation-delay:0.50s" x="417.2" y="197.1" width="5.5" height="8.9" rx="1.5" fill="#39d353"/><rect class="bar" style="animation-delay:0.52s" x="426.2" y="197.5" width="5.5" height="8.5" rx="1.5" fill="#39d353"/><rect class="bar" style="animation-delay:0.53s" x="435.1" y="201.9" width="5.5" height="4.1" rx="1.5" fill="#39d353"/><rect class="bar" style="animation-delay:0.54s" x="444.1" y="202.1" width="5.5" height="3.9" rx="1.5" fill="#39d353"/><rect class="bar" style="animation-delay:0.55s" x="453.0" y="202.9" width="5.5" height="3.1" rx="1.5" fill="#39d353"/><rect class="bar" style="animation-delay:0.56s" x="461.9" y="203.6" width="5.5" height="2.4" rx="1.5" fill="#39d353"/><rect class="bar" style="animation-delay:0.58s" x="470.9" y="199.2" width="5.5" height="6.8" rx="1.5" fill="#39d353"/><rect class="bar" style="animation-delay:0.59s" x="479.8" y="197.8" width="5.5" height="8.2" rx="1.5" fill="#39d353"/><rect class="bar" style="animation-delay:0.60s" x="488.8" y="194.2" width="5.5" height="11.8" rx="1.5" fill="#39d353"/><rect class="bar" style="animation-delay:0.61s" x="497.7" y="195.5" width="5.5" height="10.5" rx="1.5" fill="#39d353"/><rect class="bar" style="animation-delay:0.62s" x="506.6" y="192.3" width="5.5" height="13.7" rx="1.5" fill="#39d353"/><rect class="bar" style="animation-delay:0.64s" x="515.6" y="193.0" width="5.5" height="13.0" rx="1.5" fill="#39d353"/><rect class="bar" style="animation-delay:0.65s" x="524.5" y="194.8" width="5.5" height="11.2" rx="1.5" fill="#39d353"/><rect class="bar" style="animation-delay:0.66s" x="533.5" y="198.0" width="5.5" height="8.0" rx="1.5" fill="#39d353"/><rect class="bar" style="animation-delay:0.67s" x="542.4" y="193.5" width="5.5" height="12.5" rx="1.5" fill="#39d353"/><rect class="bar" style="animation-delay:0.68s" x="551.3" y="196.4" width="5.5" height="9.6" rx="1.5" fill="#39d353"/><rect class="bar" style="animation-delay:0.70s" x="560.3" y="192.9" width="5.5" height="13.1" rx="1.5" fill="#39d353"/><rect class="bar" style="animation-delay:0.71s" x="569.2" y="197.5" width="5.5" height="8.5" rx="1.5" fill="#39d353"/><rect class="bar" style="animation-delay:0.72s" x="578.2" y="197.9" width="5.5" height="8.1" rx="1.5" fill="#39d353"/><rect class="bar" style="animation-delay:0.73s" x="587.1" y="195.4" width="5.5" height="10.6" rx="1.5" fill="#39d353"/><rect class="bar" style="animation-delay:0.74s" x="596.1" y="196.0" width="5.5" height="10.0" rx="1.5" fill="#39d353"/><rect class="bar" style="animation-delay:0.76s" x="605.0" y="201.1" width="5.5" height="4.9" rx="1.5" fill="#39d353"/><rect class="bar" style="animation-delay:0.77s" x="613.9" y="202.8" width="5.5" height="3.2" rx="1.5" fill="#39d353"/><rect class="bar" style="animation-delay:0.78s" x="622.9" y="198.9" width="5.5" height="7.1" rx="1.5" fill="#39d353"/><rect class="bar" style="animation-delay:0.79s" x="631.8" y="198.0" width="5.5" height="8.0" rx="1.5" fill="#39d353"/><rect class="bar" style="animation-delay:0.80s" x="640.8" y="193.5" width="5.5" height="12.5" rx="1.5" fill="#39d353"/><rect class="bar" style="animation-delay:0.82s" x="649.7" y="193.8" width="5.5" height="12.2" rx="1.5" fill="#39d353"/><rect class="bar" style="animation-delay:0.83s" x="658.6" y="190.4" width="5.5" height="15.6" rx="1.5" fill="#39d353"/><rect class="bar" style="animation-delay:0.84s" x="667.6" y="196.0" width="5.5" height="10.0" rx="1.5" fill="#39d353"/><rect class="bar" style="animation-delay:0.85s" x="676.5" y="202.0" width="5.5" height="4.0" rx="1.5" fill="#39d353"/><rect class="bar" style="animation-delay:0.86s" x="685.5" y="194.8" width="5.5" height="11.2" rx="1.5" fill="#39d353"/><rect class="bar" style="animation-delay:0.88s" x="694.4" y="194.9" width="5.5" height="11.1" rx="1.5" fill="#39d353"/><rect class="bar" style="animation-delay:0.89s" x="703.3" y="198.4" width="5.5" height="7.6" rx="1.5" fill="#39d353"/><rect class="bar" style="animation-delay:0.90s" x="712.3" y="199.4" width="5.5" height="6.6" rx="1.5" fill="#39d353"/><rect class="bar" style="animation-delay:0.91s" x="721.2" y="202.2" width="5.5" height="3.8" rx="1.5" fill="#39d353"/><rect class="bar" style="animation-delay:0.92s" x="730.2" y="200.1" width="5.5" height="5.9" rx="1.5" fill="#39d353"/><rect class="bar" style="animation-delay:0.94s" x="739.1" y="200.5" width="5.5" height="5.5" rx="1.5" fill="#39d353"/><rect class="bar" style="animation-delay:0.95s" x="748.1" y="201.3" width="5.5" height="4.7" rx="1.5" fill="#39d353"/><rect class="bar" style="animation-delay:0.96s" x="757.0" y="197.4" width="5.5" height="8.6" rx="1.5" fill="#39d353"/><rect class="bar" style="animation-delay:0.97s" x="765.9" y="187.5" width="5.5" height="18.5" rx="1.5" fill="#39d353"/><rect class="bar" style="animation-delay:0.98s" x="774.9" y="185.5" width="5.5" height="20.5" rx="1.5" fill="#39d353"/><rect class="bar" style="animation-delay:1.00s" x="783.8" y="185.7" width="5.5" height="20.3" rx="1.5" fill="#39d353"/><rect class="bar" style="animation-delay:1.00s" x="792.8" y="114.0" width="5.5" height="92.0" rx="1.5" fill="#39d353"/><polyline class="cum" pathLength="1" points="44.5,206.0 53.4,206.0 62.4,206.0 71.3,206.0 80.2,206.0 89.2,205.9 98.1,205.9 107.1,205.5 116.0,204.7 124.9,204.4 133.9,204.2 142.8,204.0 151.8,203.8 160.7,203.7 169.6,203.6 178.6,203.6 187.5,203.6 196.5,203.3 205.4,203.1 214.4,203.1 223.3,203.1 232.2,202.9 241.2,202.6 250.1,202.3 259.1,201.7 268.0,201.1 276.9,200.7 285.9,200.4 294.8,199.9 303.8,199.5 312.7,199.2 321.6,198.3 330.6,196.8 339.5,195.5 348.5,194.9 357.4,194.2 366.4,192.6 375.3,191.9 384.2,190.9 393.2,189.8 402.1,188.5 411.1,187.5 420.0,186.2 428.9,185.1 437.9,184.5 446.8,183.9 455.8,183.5 464.7,183.2 473.6,182.2 482.6,181.1 491.5,179.5 500.5,178.0 509.4,176.1 518.4,174.3 527.3,172.8 536.2,171.7 545.2,170.0 554.1,168.6 563.1,166.8 572.0,165.6 580.9,164.5 589.9,163.0 598.8,161.7 607.8,161.0 616.7,160.5 625.6,159.5 634.6,158.4 643.5,156.7 652.5,155.0 661.4,152.9 670.4,151.5 679.3,150.9 688.2,149.4 697.2,147.8 706.1,146.8 715.1,145.9 724.0,145.3 732.9,144.5 741.9,143.8 750.8,143.1 759.8,141.9 768.7,139.4 777.6,136.5 786.6,133.7 795.5,121.0" fill="none" stroke="#58a6ff" stroke-width="2" stroke-linejoin="round"/><g class="end"><circle cx="795.5" cy="121.0" r="3" fill="#58a6ff"/>
    <text x="789.5" y="114.0" fill="#58a6ff" font-size="11" font-weight="600" text-anchor="end">32.8k</text></g><text x="98.1" y="219" fill="#8b949e" font-size="9" text-anchor="middle">2020</text><text x="205.4" y="219" fill="#8b949e" font-size="9" text-anchor="middle">2021</text><text x="312.7" y="219" fill="#8b949e" font-size="9" text-anchor="middle">2022</text><text x="420.0" y="219" fill="#8b949e" font-size="9" text-anchor="middle">2023</text><text x="527.3" y="219" fill="#8b949e" font-size="9" text-anchor="middle">2024</text><text x="634.6" y="219" fill="#8b949e" font-size="9" text-anchor="middle">2025</text><text x="741.9" y="219" fill="#8b949e" font-size="9" text-anchor="middle">2026</text>
  </g>
  <g>
    <text x="40" y="241" fill="#c9d1d9" font-size="13" font-weight="600">Yearly</text>
    <text x="800" y="241" fill="#8b949e" font-size="11" text-anchor="end">期間別 ▮   累計 ―</text>
    <line x1="40" y1="362" x2="800" y2="362" stroke="#21262d"/>
    <rect class="bar" style="animation-delay:0.00s" x="74.5" y="361.7" width="26.0" height="0.3" rx="1.5" fill="#39d353"/><rect class="bar" style="animation-delay:0.01s" x="169.5" y="351.9" width="26.0" height="10.1" rx="1.5" fill="#39d353"/><rect class="bar" style="animation-delay:0.02s" x="264.5" y="347.0" width="26.0" height="15.0" rx="1.5" fill="#39d353"/><rect class="bar" style="animation-delay:0.04s" x="359.5" y="314.9" width="26.0" height="47.1" rx="1.5" fill="#39d353"/><rect class="bar" style="animation-delay:0.05s" x="454.5" y="310.7" width="26.0" height="51.3" rx="1.5" fill="#39d353"/><rect class="bar" style="animation-delay:0.06s" x="549.5" y="304.2" width="26.0" height="57.8" rx="1.5" fill="#39d353"/><rect class="bar" style="animation-delay:0.07s" x="644.5" y="303.3" width="26.0" height="58.7" rx="1.5" fill="#39d353"/><rect class="bar" style="animation-delay:0.08s" x="739.5" y="270.0" width="26.0" height="92.0" rx="1.5" fill="#39d353"/><polyline class="cum" pathLength="1" points="87.5,361.9 182.5,359.3 277.5,355.5 372.5,343.5 467.5,330.3 562.5,315.5 657.5,300.5 752.5,277.0" fill="none" stroke="#58a6ff" stroke-width="2" stroke-linejoin="round"/><g class="end"><circle cx="752.5" cy="277.0" r="3" fill="#58a6ff"/>
    <text x="746.5" y="270.0" fill="#58a6ff" font-size="11" font-weight="600" text-anchor="end">32.8k</text></g><text x="87.5" y="375" fill="#8b949e" font-size="9" text-anchor="middle">2019</text><text x="182.5" y="375" fill="#8b949e" font-size="9" text-anchor="middle">2020</text><text x="277.5" y="375" fill="#8b949e" font-size="9" text-anchor="middle">2021</text><text x="372.5" y="375" fill="#8b949e" font-size="9" text-anchor="middle">2022</text><text x="467.5" y="375" fill="#8b949e" font-size="9" text-anchor="middle">2023</text><text x="562.5" y="375" fill="#8b949e" font-size="9" text-anchor="middle">2024</text><text x="657.5" y="375" fill="#8b949e" font-size="9" text-anchor="middle">2025</text><text x="752.5" y="375" fill="#8b949e" font-size="9" text-anchor="middle">2026</text>
  </g>
</svg>