<svg width="840" height="552" viewBox="0 0 840 552" fill="none" xmlns="http://www.w3.org/2000/svg" font-family="Segoe UI, Ubuntu, sans-serif">
  <style>
    /* auto-play on render — GitHub's img-embedded SVG runs CSS animation but not :hover/JS.
       base state = final, so if animation is unsupported the finished card still shows. */
    .bar{transform-box:fill-box;transform-origin:bottom;animation:grow .9s ease-out backwards}
    .cum{stroke-dasharray:1;animation:draw 1.4s ease-out .25s backwards}
    .end{animation:fade .6s ease-out 1.25s backwards}
    @keyframes grow{from{transform:scaleY(0)}}
    @keyframes draw{from{stroke-dashoffset:1}to{stroke-dashoffset:0}}
    @keyframes fade{from{opacity:0}}
    @media (prefers-reduced-motion:reduce){.bar,.cum,.end{animation:none}}
  </style>
  <rect x="0.5" y="0.5" width="839" height="551" rx="10" fill="#0d1117" stroke="#30363d"/>
  <text x="40" y="40" fill="#58a6ff" font-size="18" font-weight="700">fujiya228 · GitHub Activity</text>
  <text x="800" y="40" fill="#8b949e" font-size="12" text-anchor="end">past year: 11.3k contributions</text>
  <g>
    <text x="40" y="85" fill="#c9d1d9" font-size="13" font-weight="600">Daily · last 30 days</text>
    <text x="800" y="85" fill="#8b949e" font-size="11" text-anchor="end">期間別 ▮   累計 ―</text>
    <line x1="40" y1="206" x2="800" y2="206" stroke="#21262d"/>
    <rect class="bar" style="animation-delay:0.00s" x="44.8" y="188.3" width="15.7" height="17.7" rx="1.5" fill="#39d353"/><rect class="bar" style="animation-delay:0.01s" x="70.1" y="197.1" width="15.7" height="8.9" rx="1.5" fill="#39d353"/><rect class="bar" style="animation-delay:0.02s" x="95.5" y="195.8" width="15.7" height="10.2" rx="1.5" fill="#39d353"/><rect class="bar" style="animation-delay:0.04s" x="120.8" y="179.2" width="15.7" height="26.8" rx="1.5" fill="#39d353"/><rect class="bar" style="animation-delay:0.05s" x="146.1" y="198.3" width="15.7" height="7.7" rx="1.5" fill="#39d353"/><rect class="bar" style="animation-delay:0.06s" x="171.5" y="188.7" width="15.7" height="17.3" rx="1.5" fill="#39d353"/><rect class="bar" style="animation-delay:0.07s" x="196.8" y="171.7" width="15.7" height="34.3" rx="1.5" fill="#39d353"/><rect class="bar" style="animation-delay:0.08s" x="222.1" y="172.4" width="15.7" height="33.6" rx="1.5" fill="#39d353"/><rect class="bar" style="animation-delay:0.10s" x="247.5" y="174.2" width="15.7" height="31.8" rx="1.5" fill="#39d353"/><rect class="bar" style="animation-delay:0.11s" x="272.8" y="114.0" width="15.7" height="92.0" rx="1.5" fill="#39d353"/><rect class="bar" style="animation-delay:0.12s" x="298.1" y="161.7" width="15.7" height="44.3" rx="1.5" fill="#39d353"/><rect class="bar" style="animation-delay:0.13s" x="323.5" y="139.7" width="15.7" height="66.3" rx="1.5" fill="#39d353"/><rect class="bar" style="animation-delay:0.14s" x="348.8" y="125.1" width="15.7" height="80.9" rx="1.5" fill="#39d353"/><rect class="bar" style="animation-delay:0.16s" x="374.1" y="163.3" width="15.7" height="42.7" rx="1.5" fill="#39d353"/><rect class="bar" style="animation-delay:0.17s" x="399.5" y="199.0" width="15.7" height="7.0" rx="1.5" fill="#39d353"/><rect class="bar" style="animation-delay:0.18s" x="424.8" y="135.1" width="15.7" height="70.9" rx="1.5" fill="#39d353"/><rect class="bar" style="animation-delay:0.19s" x="450.1" y="129.0" width="15.7" height="77.0" rx="1.5" fill="#39d353"/><rect class="bar" style="animation-delay:0.20s" x="475.5" y="144.2" width="15.7" height="61.8" rx="1.5" fill="#39d353"/><rect class="bar" style="animation-delay:0.22s" x="500.8" y="161.0" width="15.7" height="45.0" rx="1.5" fill="#39d353"/><rect class="bar" style="animation-delay:0.23s" x="526.1" y="180.8" width="15.7" height="25.2" rx="1.5" fill="#39d353"/><rect class="bar" style="animation-delay:0.24s" x="551.5" y="188.1" width="15.7" height="17.9" rx="1.5" fill="#39d353"/><rect class="bar" style="animation-delay:0.25s" x="576.8" y="156.7" width="15.7" height="49.3" rx="1.5" fill="#39d353"/><rect class="bar" style="animation-delay:0.26s" x="602.1" y="198.7" width="15.7" height="7.3" rx="1.5" fill="#39d353"/><rect class="bar" style="animation-delay:0.28s" x="627.5" y="166.2" width="15.7" height="39.8" rx="1.5" fill="#39d353"/><rect class="bar" style="animation-delay:0.29s" x="652.8" y="138.3" width="15.7" height="67.7" rx="1.5" fill="#39d353"/><rect class="bar" style="animation-delay:0.30s" x="678.1" y="168.5" width="15.7" height="37.5" rx="1.5" fill="#39d353"/><rect class="bar" style="animation-delay:0.31s" x="703.5" y="155.3" width="15.7" height="50.7" rx="1.5" fill="#39d353"/><rect class="bar" style="animation-delay:0.32s" x="728.8" y="119.9" width="15.7" height="86.1" rx="1.5" fill="#39d353"/><rect class="bar" style="animation-delay:0.34s" x="754.1" y="155.3" width="15.7" height="50.7" rx="1.5" fill="#39d353"/><rect class="bar" style="animation-delay:0.35s" x="779.5" y="195.1" width="15.7" height="10.9" rx="1.5" fill="#39d353"/><polyline class="cum" pathLength="1" points="52.7,204.8 78.0,204.1 103.3,203.4 128.7,201.6 154.0,201.0 179.3,199.8 204.7,197.4 230.0,195.1 255.3,192.9 280.7,186.5 306.0,183.4 331.3,178.7 356.7,173.1 382.0,170.1 407.3,169.6 432.7,164.7 458.0,159.3 483.3,155.0 508.7,151.9 534.0,150.1 559.3,148.9 584.7,145.4 610.0,144.9 635.3,142.2 660.7,137.4 686.0,134.8 711.3,131.3 736.7,125.3 762.0,121.8 787.3,121.0" fill="none" stroke="#58a6ff" stroke-width="2" stroke-linejoin="round"/><g class="end"><circle cx="787.3" cy="121.0" r="3" fill="#58a6ff"/>
    <text x="781.3" y="114.0" fill="#58a6ff" font-size="11" font-weight="600" text-anchor="end">5.4k</text></g><text x="52.7" y="219" fill="#8b949e" font-size="9" text-anchor="middle">6/25</text><text x="787.3" y="219" fill="#8b949e" font-size="9" text-anchor="middle">7/24</text>
  </g>
  <g>
    <text x="40" y="241" fill="#c9d1d9" font-size="13" font-weight="600">Weekly · last 13 weeks</text>
    <text x="800" y="241" fill="#8b949e" font-size="11" text-anchor="end">期間別 ▮   累計 ―</text>
    <line x1="40" y1="362" x2="800" y2="362" stroke="#21262d"/>
    <rect class="bar" style="animation-delay:0.00s" x="56.2" y="353.5" width="26.0" height="8.5" rx="1.5" fill="#39d353"/><rect class="bar" style="animation-delay:0.01s" x="114.7" y="337.5" width="26.0" height="24.5" rx="1.5" fill="#39d353"/><rect class="bar" style="animation-delay:0.02s" x="173.2" y="346.7" width="26.0" height="15.3" rx="1.5" fill="#39d353"/><rect class="bar" style="animation-delay:0.04s" x="231.6" y="353.7" width="26.0" height="8.3" rx="1.5" fill="#39d353"/><rect class="bar" style="animation-delay:0.05s" x="290.1" y="354.3" width="26.0" height="7.7" rx="1.5" fill="#39d353"/><rect class="bar" style="animation-delay:0.06s" x="348.5" y="358.5" width="26.0" height="3.5" rx="1.5" fill="#39d353"/><rect class="bar" style="animation-delay:0.07s" x="407.0" y="353.7" width="26.0" height="8.3" rx="1.5" fill="#39d353"/><rect class="bar" style="animation-delay:0.08s" x="465.5" y="350.5" width="26.0" height="11.5" rx="1.5" fill="#39d353"/><rect class="bar" style="animation-delay:0.10s" x="523.9" y="343.3" width="26.0" height="18.7" rx="1.5" fill="#39d353"/><rect class="bar" style="animation-delay:0.11s" x="582.4" y="325.2" width="26.0" height="36.8" rx="1.5" fill="#39d353"/><rect class="bar" style="animation-delay:0.12s" x="640.8" y="270.0" width="26.0" height="92.0" rx="1.5" fill="#39d353"/><rect class="bar" style="animation-delay:0.13s" x="699.3" y="297.5" width="26.0" height="64.5" rx="1.5" fill="#39d353"/><rect class="bar" style="animation-delay:0.14s" x="757.8" y="283.9" width="26.0" height="78.1" rx="1.5" fill="#39d353"/><polyline class="cum" pathLength="1" points="69.2,360.1 127.7,354.6 186.2,351.2 244.6,349.3 303.1,347.6 361.5,346.8 420.0,344.9 478.5,342.3 536.9,338.1 595.4,329.8 653.8,309.1 712.3,294.6 770.8,277.0" fill="none" stroke="#58a6ff" stroke-width="2" stroke-linejoin="round"/><g class="end"><circle cx="770.8" cy="277.0" r="3" fill="#58a6ff"/>
    <text x="764.8" y="270.0" fill="#58a6ff" font-size="11" font-weight="600" text-anchor="end">7.3k</text></g><text x="69.2" y="375" fill="#8b949e" font-size="9" text-anchor="middle">4/25</text><text x="770.8" y="375" fill="#8b949e" font-size="9" text-anchor="middle">7/18</text>
  </g>
  <g>
    <text x="40" y="397" fill="#c9d1d9" font-size="13" font-weight="600">Monthly · last 12 months</text>
    <text x="800" y="397" fill="#8b949e" font-size="11" text-anchor="end">期間別 ▮   累計 ―</text>
    <line x1="40" y1="518" x2="800" y2="518" stroke="#21262d"/>
    <rect class="bar" style="animation-delay:0.00s" x="58.7" y="507.0" width="26.0" height="11.0" rx="1.5" fill="#39d353"/><rect class="bar" style="animation-delay:0.01s" x="122.0" y="510.5" width="26.0" height="7.5" rx="1.5" fill="#39d353"/><rect class="bar" style="animation-delay:0.02s" x="185.3" y="511.4" width="26.0" height="6.6" rx="1.5" fill="#39d353"/><rect class="bar" style="animation-delay:0.04s" x="248.7" y="514.2" width="26.0" height="3.8" rx="1.5" fill="#39d353"/><rect class="bar" style="animation-delay:0.05s" x="312.0" y="512.2" width="26.0" height="5.8" rx="1.5" fill="#39d353"/><rect class="bar" style="animation-delay:0.06s" x="375.3" y="512.6" width="26.0" height="5.4" rx="1.5" fill="#39d353"/><rect class="bar" style="animation-delay:0.07s" x="438.7" y="513.3" width="26.0" height="4.7" rx="1.5" fill="#39d353"/><rect class="bar" style="animation-delay:0.08s" x="502.0" y="509.6" width="26.0" height="8.4" rx="1.5" fill="#39d353"/><rect class="bar" style="animation-delay:0.10s" x="565.3" y="499.7" width="26.0" height="18.3" rx="1.5" fill="#39d353"/><rect class="bar" style="animation-delay:0.11s" x="628.7" y="497.8" width="26.0" height="20.2" rx="1.5" fill="#39d353"/><rect class="bar" style="animation-delay:0.12s" x="692.0" y="498.0" width="26.0" height="20.0" rx="1.5" fill="#39d353"/><rect class="bar" style="animation-delay:0.13s" x="755.3" y="426.0" width="26.0" height="92.0" rx="1.5" fill="#39d353"/><polyline class="cum" pathLength="1" points="71.7,513.4 135.0,510.3 198.3,507.6 261.7,506.0 325.0,503.6 388.3,501.3 451.7,499.4 515.0,495.8 578.3,488.2 641.7,479.8 705.0,471.4 768.3,433.0" fill="none" stroke="#58a6ff" stroke-width="2" stroke-linejoin="round"/><g class="end"><circle cx="768.3" cy="433.0" r="3" fill="#58a6ff"/>
    <text x="762.3" y="426.0" fill="#58a6ff" font-size="11" font-weight="600" text-anchor="end">11k</text></g><text x="71.7" y="531" fill="#8b949e" font-size="9" text-anchor="middle">Aug</text><text x="135.0" y="531" fill="#8b949e" font-size="9" text-anchor="middle">Sep</text><text x="198.3" y="531" fill="#8b949e" font-size="9" text-anchor="middle">Oct</text><text x="261.7" y="531" fill="#8b949e" font-size="9" text-anchor="middle">Nov</text><text x="325.0" y="531" fill="#8b949e" font-size="9" text-anchor="middle">Dec</text><text x="388.3" y="531" fill="#8b949e" font-size="9" text-anchor="middle">Jan</text><text x="451.7" y="531" fill="#8b949e" font-size="9" text-anchor="middle">Feb</text><text x="515.0" y="531" fill="#8b949e" font-size="9" text-anchor="middle">Mar</text><text x="578.3" y="531" fill="#8b949e" font-size="9" text-anchor="middle">Apr</text><text x="641.7" y="531" fill="#8b949e" font-size="9" text-anchor="middle">May</text><text x="705.0" y="531" fill="#8b949e" font-size="9" text-anchor="middle">Jun</text><text x="768.3" y="531" fill="#8b949e" font-size="9" text-anchor="middle">Jul</text>
  </g>
</svg>