<svg width="840" height="396" viewBox="0 0 840 396" fill="none" xmlns="http://www.w3.org/2000/svg" font-family="Segoe UI, Ubuntu, sans-serif">
  <style>
    /* auto-play on render — GitHub's img-embedded SVG runs CSS animation but not :hover/JS.
       base state = final, so if animation is unsupported the finished card still shows. */
    .bar{transform-box:fill-box;transform-origin:bottom;animation:grow .9s ease-out backwards}
    .cum{stroke-dasharray:1;animation:draw 1.4s ease-out .25s backwards}
    .end{animation:fade .6s ease-out 1.25s backwards}
    @keyframes grow{from{transform:scaleY(0)}}
    @keyframes draw{from{stroke-dashoffset:1}to{stroke-dashoffset:0}}
    @keyframes fade{from{opacity:0}}
    @media (prefers-reduced-motion:reduce){.bar,.cum,.end{animation:none}}
  </style>
  <rect x="0.5" y="0.5" width="839" height="395" rx="10" fill="#0d1117" stroke="#30363d"/>
  <text x="40" y="40" fill="#58a6ff" font-size="18" font-weight="700">fujiya228 · GitHub Activity</text>
  <text x="800" y="40" fill="#8b949e" font-size="12" text-anchor="end">all time: 33.8k contributions since 2019</text>
  <g>
    <text x="40" y="85" fill="#c9d1d9" font-size="13" font-weight="600">Monthly · all time</text>
    <text x="800" y="85" fill="#8b949e" font-size="11" text-anchor="end">期間別 ▮   累計 ―</text>
    <line x1="40" y1="206" x2="800" y2="206" stroke="#21262d"/>
    <rect class="bar" style="animation-delay:0.00s" x="41.7" y="206.0" width="5.5" height="0.0" rx="1.5" fill="#39d353"/><rect class="bar" style="animation-delay:0.01s" x="50.6" y="205.9" width="5.5" height="0.1" rx="1.5" fill="#39d353"/><rect class="bar" style="animation-delay:0.02s" x="59.6" y="205.8" width="5.5" height="0.2" rx="1.5" fill="#39d353"/><rect class="bar" style="animation-delay:0.04s" x="68.5" y="206.0" width="5.5" height="0.0" rx="1.5" fill="#39d353"/><rect class="bar" style="animation-delay:0.05s" x="77.5" y="206.0" width="5.5" height="0.0" rx="1.5" fill="#39d353"/><rect class="bar" style="animation-delay:0.06s" x="86.4" y="205.8" width="5.5" height="0.2" rx="1.5" fill="#39d353"/><rect class="bar" style="animation-delay:0.07s" x="95.3" y="205.6" width="5.5" height="0.4" rx="1.5" fill="#39d353"/><rect class="bar" style="animation-delay:0.08s" x="104.3" y="204.0" width="5.5" height="2.0" rx="1.5" fill="#39d353"/><rect class="bar" style="animation-delay:0.10s" x="113.2" y="201.1" width="5.5" height="4.9" rx="1.5" fill="#39d353"/><rect class="bar" style="animation-delay:0.11s" x="122.2" y="203.9" width="5.5" height="2.1" rx="1.5" fill="#39d353"/><rect class="bar" style="animation-delay:0.12s" x="131.1" y="204.7" width="5.5" height="1.3" rx="1.5" fill="#39d353"/><rect class="bar" style="animation-delay:0.13s" x="140.1" y="205.2" width="5.5" height="0.8" rx="1.5" fill="#39d353"/><rect class="bar" style="animation-delay:0.14s" x="149.0" y="204.5" width="5.5" height="1.5" rx="1.5" fill="#39d353"/><rect class="bar" style="animation-delay:0.16s" x="157.9" y="205.4" width="5.5" height="0.6" rx="1.5" fill="#39d353"/><rect class="bar" style="animation-delay:0.17s" x="166.9" y="205.7" width="5.5" height="0.3" rx="1.5" fill="#39d353"/><rect class="bar" style="animation-delay:0.18s" x="175.8" y="206.0" width="5.5" height="0.0" rx="1.5" fill="#39d353"/><rect class="bar" style="animation-delay:0.19s" x="184.8" y="205.7" width="5.5" height="0.3" rx="1.5" fill="#39d353"/><rect class="bar" style="animation-delay:0.20s" x="193.7" y="204.5" width="5.5" height="1.5" rx="1.5" fill="#39d353"/><rect class="bar" style="animation-delay:0.22s" x="202.6" y="204.4" width="5.5" height="1.6" rx="1.5" fill="#39d353"/><rect class="bar" style="animation-delay:0.23s" x="211.6" y="205.9" width="5.5" height="0.1" rx="1.5" fill="#39d353"/><rect class="bar" style="animation-delay:0.24s" x="220.5" y="205.9" width="5.5" height="0.1" rx="1.5" fill="#39d353"/><rect class="bar" style="animation-delay:0.25s" x="229.5" y="204.9" width="5.5" height="1.1" rx="1.5" fill="#39d353"/><rect class="bar" style="animation-delay:0.26s" x="238.4" y="204.4" width="5.5" height="1.6" rx="1.5" fill="#39d353"/><rect class="bar" style="animation-delay:0.28s" x="247.3" y="204.3" width="5.5" height="1.7" rx="1.5" fill="#39d353"/><rect class="bar" style="animation-delay:0.29s" x="256.3" y="201.9" width="5.5" height="4.1" rx="1.5" fill="#39d353"/><rect class="bar" style="animation-delay:0.30s" x="265.2" y="202.7" width="5.5" height="3.3" rx="1.5" fill="#39d353"/><rect class="bar" style="animation-delay:0.31s" x="274.2" y="203.4" width="5.5" height="2.6" rx="1.5" fill="#39d353"/><rect class="bar" style="animation-delay:0.32s" x="283.1" y="204.3" width="5.5" height="1.7" rx="1.5" fill="#39d353"/><rect class="bar" style="animation-delay:0.34s" x="292.1" y="203.1" width="5.5" height="2.9" rx="1.5" fill="#39d353"/><rect class="bar" style="animation-delay:0.35s" x="301.0" y="203.4" width="5.5" height="2.6" rx="1.5" fill="#39d353"/><rect class="bar" style="animation-delay:0.36s" x="309.9" y="203.9" width="5.5" height="2.1" rx="1.5" fill="#39d353"/><rect class="bar" style="animation-delay:0.37s" x="318.9" y="201.0" width="5.5" height="5.0" rx="1.5" fill="#39d353"/><rect class="bar" style="animation-delay:0.38s" x="327.8" y="196.6" width="5.5" height="9.4" rx="1.5" fill="#39d353"/><rect class="bar" style="animation-delay:0.40s" x="336.8" y="198.5" width="5.5" height="7.5" rx="1.5" fill="#39d353"/><rect class="bar" style="animation-delay:0.41s" x="345.7" y="202.2" width="5.5" height="3.8" rx="1.5" fill="#39d353"/><rect class="bar" style="animation-delay:0.42s" x="354.6" y="201.7" width="5.5" height="4.3" rx="1.5" fill="#39d353"/><rect class="bar" style="animation-delay:0.43s" x="363.6" y="196.3" width="5.5" height="9.7" rx="1.5" fill="#39d353"/><rect class="bar" style="animation-delay:0.44s" x="372.5" y="201.4" width="5.5" height="4.6" rx="1.5" fill="#39d353"/><rect class="bar" style="animation-delay:0.46s" x="381.5" y="199.9" width="5.5" height="6.1" rx="1.5" fill="#39d353"/><rect class="bar" style="animation-delay:0.47s" x="390.4" y="199.6" width="5.5" height="6.4" rx="1.5" fill="#39d353"/><rect class="bar" style="animation-delay:0.48s" x="399.3" y="198.1" width="5.5" height="7.9" rx="1.5" fill="#39d353"/><rect class="bar" style="animation-delay:0.49s" x="408.3" y="199.6" width="5.5" height="6.4" rx="1.5" fill="#39d353"/><rect class="bar" style="animation-delay:0.50s" x="417.2" y="198.5" width="5.5" height="7.5" rx="1.5" fill="#39d353"/><rect class="bar" style="animation-delay:0.52s" x="426.2" y="198.9" width="5.5" height="7.1" rx="1.5" fill="#39d353"/><rect class="bar" style="animation-delay:0.53s" x="435.1" y="202.5" width="5.5" height="3.5" rx="1.5" fill="#39d353"/><rect class="bar" style="animation-delay:0.54s" x="444.1" y="202.8" width="5.5" height="3.2" rx="1.5" fill="#39d353"/><rect class="bar" style="animation-delay:0.55s" x="453.0" y="203.4" width="5.5" height="2.6" rx="1.5" fill="#39d353"/><rect class="bar" style="animation-delay:0.56s" x="461.9" y="204.0" width="5.5" height="2.0" rx="1.5" fill="#39d353"/><rect class="bar" style="animation-delay:0.58s" x="470.9" y="200.3" width="5.5" height="5.7" rx="1.5" fill="#39d353"/><rect class="bar" style="animation-delay:0.59s" x="479.8" y="199.1" width="5.5" height="6.9" rx="1.5" fill="#39d353"/><rect class="bar" style="animation-delay:0.60s" x="488.8" y="196.1" width="5.5" height="9.9" rx="1.5" fill="#39d353"/><rect class="bar" style="animation-delay:0.61s" x="497.7" y="197.1" width="5.5" height="8.9" rx="1.5" fill="#39d353"/><rect class="bar" style="animation-delay:0.62s" x="506.6" y="194.5" width="5.5" height="11.5" rx="1.5" fill="#39d353"/><rect class="bar" style="animation-delay:0.64s" x="515.6" y="195.1" width="5.5" height="10.9" rx="1.5" fill="#39d353"/><rect class="bar" style="animation-delay:0.65s" x="524.5" y="196.6" width="5.5" height="9.4" rx="1.5" fill="#39d353"/><rect class="bar" style="animation-delay:0.66s" x="533.5" y="199.3" width="5.5" height="6.7" rx="1.5" fill="#39d353"/><rect class="bar" style="animation-delay:0.67s" x="542.4" y="195.5" width="5.5" height="10.5" rx="1.5" fill="#39d353"/><rect class="bar" style="animation-delay:0.68s" x="551.3" y="197.9" width="5.5" height="8.1" rx="1.5" fill="#39d353"/><rect class="bar" style="animation-delay:0.70s" x="560.3" y="195.0" width="5.5" height="11.0" rx="1.5" fill="#39d353"/><rect class="bar" style="animation-delay:0.71s" x="569.2" y="198.9" width="5.5" height="7.1" rx="1.5" fill="#39d353"/><rect class="bar" style="animation-delay:0.72s" x="578.2" y="199.2" width="5.5" height="6.8" rx="1.5" fill="#39d353"/><rect class="bar" style="animation-delay:0.73s" x="587.1" y="197.0" width="5.5" height="9.0" rx="1.5" fill="#39d353"/><rect class="bar" style="animation-delay:0.74s" x="596.1" y="197.6" width="5.5" height="8.4" rx="1.5" fill="#39d353"/><rect class="bar" style="animation-delay:0.76s" x="605.0" y="201.9" width="5.5" height="4.1" rx="1.5" fill="#39d353"/><rect class="bar" style="animation-delay:0.77s" x="613.9" y="203.3" width="5.5" height="2.7" rx="1.5" fill="#39d353"/><rect class="bar" style="animation-delay:0.78s" x="622.9" y="200.0" width="5.5" height="6.0" rx="1.5" fill="#39d353"/><rect class="bar" style="animation-delay:0.79s" x="631.8" y="199.2" width="5.5" height="6.8" rx="1.5" fill="#39d353"/><rect class="bar" style="animation-delay:0.80s" x="640.8" y="195.5" width="5.5" height="10.5" rx="1.5" fill="#39d353"/><rect class="bar" style="animation-delay:0.82s" x="649.7" y="195.7" width="5.5" height="10.3" rx="1.5" fill="#39d353"/><rect class="bar" style="animation-delay:0.83s" x="658.6" y="192.9" width="5.5" height="13.1" rx="1.5" fill="#39d353"/><rect class="bar" style="animation-delay:0.84s" x="667.6" y="197.6" width="5.5" height="8.4" rx="1.5" fill="#39d353"/><rect class="bar" style="animation-delay:0.85s" x="676.5" y="202.6" width="5.5" height="3.4" rx="1.5" fill="#39d353"/><rect class="bar" style="animation-delay:0.86s" x="685.5" y="196.5" width="5.5" height="9.5" rx="1.5" fill="#39d353"/><rect class="bar" style="animation-delay:0.88s" x="694.4" y="196.7" width="5.5" height="9.3" rx="1.5" fill="#39d353"/><rect class="bar" style="animation-delay:0.89s" x="703.3" y="199.6" width="5.5" height="6.4" rx="1.5" fill="#39d353"/><rect class="bar" style="animation-delay:0.90s" x="712.3" y="200.4" width="5.5" height="5.6" rx="1.5" fill="#39d353"/><rect class="bar" style="animation-delay:0.91s" x="721.2" y="202.8" width="5.5" height="3.2" rx="1.5" fill="#39d353"/><rect class="bar" style="animation-delay:0.92s" x="730.2" y="201.1" width="5.5" height="4.9" rx="1.5" fill="#39d353"/><rect class="bar" style="animation-delay:0.94s" x="739.1" y="201.4" width="5.5" height="4.6" rx="1.5" fill="#39d353"/><rect class="bar" style="animation-delay:0.95s" x="748.1" y="202.0" width="5.5" height="4.0" rx="1.5" fill="#39d353"/><rect class="bar" style="animation-delay:0.96s" x="757.0" y="198.8" width="5.5" height="7.2" rx="1.5" fill="#39d353"/><rect class="bar" style="animation-delay:0.97s" x="765.9" y="190.4" width="5.5" height="15.6" rx="1.5" fill="#39d353"/><rect class="bar" style="animation-delay:0.98s" x="774.9" y="188.8" width="5.5" height="17.2" rx="1.5" fill="#39d353"/><rect class="bar" style="animation-delay:1.00s" x="783.8" y="188.9" width="5.5" height="17.1" rx="1.5" fill="#39d353"/><rect class="bar" style="animation-delay:1.00s" x="792.8" y="114.0" width="5.5" height="92.0" rx="1.5" fill="#39d353"/><polyline class="cum" pathLength="1" points="44.5,206.0 53.4,206.0 62.4,206.0 71.3,206.0 80.2,206.0 89.2,205.9 98.1,205.9 107.1,205.5 116.0,204.8 124.9,204.4 133.9,204.2 142.8,204.1 151.8,203.9 160.7,203.8 169.6,203.7 178.6,203.7 187.5,203.7 196.5,203.4 205.4,203.2 214.4,203.1 223.3,203.1 232.2,203.0 241.2,202.7 250.1,202.4 259.1,201.8 268.0,201.3 276.9,200.8 285.9,200.6 294.8,200.1 303.8,199.7 312.7,199.3 321.6,198.5 330.6,197.0 339.5,195.8 348.5,195.2 357.4,194.5 366.4,193.0 375.3,192.3 384.2,191.3 393.2,190.3 402.1,189.0 411.1,188.0 420.0,186.8 428.9,185.6 437.9,185.1 446.8,184.6 455.8,184.1 464.7,183.8 473.6,182.9 482.6,181.8 491.5,180.2 500.5,178.8 509.4,177.0 518.4,175.2 527.3,173.7 536.2,172.6 545.2,171.0 554.1,169.7 563.1,167.9 572.0,166.8 580.9,165.7 589.9,164.2 598.8,162.9 607.8,162.2 616.7,161.8 625.6,160.8 634.6,159.7 643.5,158.1 652.5,156.4 661.4,154.3 670.4,153.0 679.3,152.4 688.2,150.9 697.2,149.4 706.1,148.4 715.1,147.5 724.0,147.0 732.9,146.2 741.9,145.5 750.8,144.9 759.8,143.7 768.7,141.2 777.6,138.5 786.6,135.7 795.5,121.0" fill="none" stroke="#58a6ff" stroke-width="2" stroke-linejoin="round"/><g class="end"><circle cx="795.5" cy="121.0" r="3" fill="#58a6ff"/>
    <text x="789.5" y="114.0" fill="#58a6ff" font-size="11" font-weight="600" text-anchor="end">33.8k</text></g><text x="98.1" y="219" fill="#8b949e" font-size="9" text-anchor="middle">2020</text><text x="205.4" y="219" fill="#8b949e" font-size="9" text-anchor="middle">2021</text><text x="312.7" y="219" fill="#8b949e" font-size="9" text-anchor="middle">2022</text><text x="420.0" y="219" fill="#8b949e" font-size="9" text-anchor="middle">2023</text><text x="527.3" y="219" fill="#8b949e" font-size="9" text-anchor="middle">2024</text><text x="634.6" y="219" fill="#8b949e" font-size="9" text-anchor="middle">2025</text><text x="741.9" y="219" fill="#8b949e" font-size="9" text-anchor="middle">2026</text>
  </g>
  <g>
    <text x="40" y="241" fill="#c9d1d9" font-size="13" font-weight="600">Yearly</text>
    <text x="800" y="241" fill="#8b949e" font-size="11" text-anchor="end">期間別 ▮   累計 ―</text>
    <line x1="40" y1="362" x2="800" y2="362" stroke="#21262d"/>
    <rect class="bar" style="animation-delay:0.00s" x="74.5" y="361.7" width="26.0" height="0.3" rx="1.5" fill="#39d353"/><rect class="bar" style="animation-delay:0.01s" x="169.5" y="352.9" width="26.0" height="9.1" rx="1.5" fill="#39d353"/><rect class="bar" style="animation-delay:0.02s" x="264.5" y="348.4" width="26.0" height="13.6" rx="1.5" fill="#39d353"/><rect class="bar" style="animation-delay:0.04s" x="359.5" y="319.3" width="26.0" height="42.7" rx="1.5" fill="#39d353"/><rect class="bar" style="animation-delay:0.05s" x="454.5" y="315.5" width="26.0" height="46.5" rx="1.5" fill="#39d353"/><rect class="bar" style="animation-delay:0.06s" x="549.5" y="309.6" width="26.0" height="52.4" rx="1.5" fill="#39d353"/><rect class="bar" style="animation-delay:0.07s" x="644.5" y="308.8" width="26.0" height="53.2" rx="1.5" fill="#39d353"/><rect class="bar" style="animation-delay:0.08s" x="739.5" y="270.0" width="26.0" height="92.0" rx="1.5" fill="#39d353"/><polyline class="cum" pathLength="1" points="87.5,361.9 182.5,359.4 277.5,355.7 372.5,344.0 467.5,331.2 562.5,316.8 657.5,302.2 752.5,277.0" fill="none" stroke="#58a6ff" stroke-width="2" stroke-linejoin="round"/><g class="end"><circle cx="752.5" cy="277.0" r="3" fill="#58a6ff"/>
    <text x="746.5" y="270.0" fill="#58a6ff" font-size="11" font-weight="600" text-anchor="end">33.8k</text></g><text x="87.5" y="375" fill="#8b949e" font-size="9" text-anchor="middle">2019</text><text x="182.5" y="375" fill="#8b949e" font-size="9" text-anchor="middle">2020</text><text x="277.5" y="375" fill="#8b949e" font-size="9" text-anchor="middle">2021</text><text x="372.5" y="375" fill="#8b949e" font-size="9" text-anchor="middle">2022</text><text x="467.5" y="375" fill="#8b949e" font-size="9" text-anchor="middle">2023</text><text x="562.5" y="375" fill="#8b949e" font-size="9" text-anchor="middle">2024</text><text x="657.5" y="375" fill="#8b949e" font-size="9" text-anchor="middle">2025</text><text x="752.5" y="375" fill="#8b949e" font-size="9" text-anchor="middle">2026</text>
  </g>
</svg>