<svg width="500" height="210" viewBox="0 0 500 210" fill="none" xmlns="http://www.w3.org/2000/svg" font-family="Segoe UI, Ubuntu, sans-serif">
  <rect x="0.5" y="0.5" width="499" height="209" rx="10" fill="#0d1117" stroke="#30363d"/>
  <text x="30" y="42" fill="#58a6ff" font-size="18" font-weight="700">Yoshida Syunsuke's GitHub stats</text>
  
    <text x="30" y="86" fill="#8b949e" font-size="13">Total Stars Earned</text>
    <text x="230" y="86" fill="#c9d1d9" font-size="14" font-weight="600" text-anchor="end">5</text>
    <text x="30" y="112" fill="#8b949e" font-size="13">Total Commits (1y)</text>
    <text x="230" y="112" fill="#c9d1d9" font-size="14" font-weight="600" text-anchor="end">168</text>
    <text x="30" y="138" fill="#8b949e" font-size="13">Total PRs</text>
    <text x="230" y="138" fill="#c9d1d9" font-size="14" font-weight="600" text-anchor="end">2.3k</text>
  
    <text x="265" y="86" fill="#8b949e" font-size="13">Followers</text>
    <text x="465" y="86" fill="#c9d1d9" font-size="14" font-weight="600" text-anchor="end">18</text>
    <text x="265" y="112" fill="#8b949e" font-size="13">Public Repos</text>
    <text x="465" y="112" fill="#c9d1d9" font-size="14" font-weight="600" text-anchor="end">129</text>
    <text x="265" y="138" fill="#8b949e" font-size="13">Total Issues</text>
    <text x="465" y="138" fill="#c9d1d9" font-size="14" font-weight="600" text-anchor="end">2.3k</text>
  <rect x="30" y="178" width="440" height="8" rx="4" fill="#21262d"/>
  <rect x="30" y="178" width="240.9" height="8" fill="#3178c6"/><rect x="270.9083662154959" y="178" width="71.3" height="8" fill="#e34c26"/><rect x="342.20567932591774" y="178" width="35.1" height="8" fill="#3572A5"/><rect x="377.3307416057187" y="178" width="30.7" height="8" fill="#4F5D95"/><rect x="408.0600536824831" y="178" width="15.5" height="8" fill="#f1e05a"/><rect x="423.5417795610896" y="178" width="12.8" height="8" fill="#663399"/>
  <circle cx="34" cy="202" r="4" fill="#3178c6"/>
      <text x="43" y="206" fill="#8b949e" font-size="10">TypeScript 54.8%</text><circle cx="112" cy="202" r="4" fill="#e34c26"/>
      <text x="121" y="206" fill="#8b949e" font-size="10">HTML 16.2%</text><circle cx="190" cy="202" r="4" fill="#3572A5"/>
      <text x="199" y="206" fill="#8b949e" font-size="10">Python 8.0%</text><circle cx="268" cy="202" r="4" fill="#4F5D95"/>
      <text x="277" y="206" fill="#8b949e" font-size="10">PHP 7.0%</text><circle cx="346" cy="202" r="4" fill="#f1e05a"/>
      <text x="355" y="206" fill="#8b949e" font-size="10">JavaScript 3.5%</text><circle cx="424" cy="202" r="4" fill="#663399"/>
      <text x="433" y="206" fill="#8b949e" font-size="10">CSS 2.9%</text>
</svg>